<?xml version="1.0" standalone="no"?>
<!DOCTYPE svg PUBLIC "-//W3C//DTD SVG 1.1//EN" "http://www.w3.org/Graphics/SVG/1.1/DTD/svg11.dtd" >
<svg xmlns="http://www.w3.org/2000/svg">
<metadata></metadata>
<defs>
<font id="tragicbold_italic" horiz-adv-x="1107" >
<font-face units-per-em="2048" ascent="1536" descent="-512" />
<missing-glyph horiz-adv-x="376" />
<glyph horiz-adv-x="0" />
<glyph horiz-adv-x="682" />
<glyph unicode=" "  horiz-adv-x="376" />
<glyph unicode="&#x09;" horiz-adv-x="376" />
<glyph unicode="&#xa0;" horiz-adv-x="376" />
<glyph unicode="!" horiz-adv-x="550" d="M29 145q0 84 55 144q57 61 143 61q74 0 121 -49q47 -47 47 -123q0 -88 -57 -143q-57 -57 -145 -58q-74 1 -119 48t-45 120zM150 453l133 927h317l-221 -927h-229z" />
<glyph unicode="&#x22;" horiz-adv-x="792" d="M172 848l64 569h274l-152 -569h-186zM565 848l64 569h274l-151 -569h-187z" />
<glyph unicode="#" d="M45 367l31 184h196l78 235h-174l29 185h201l114 360h178l-114 -360h180l115 360h180l-115 -360h166l-31 -185h-192l-74 -235h170l-31 -184h-200l-113 -367h-182l114 367h-178l-112 -367h-183l115 367h-168zM455 551h178l74 235h-179z" />
<glyph unicode="$" d="M35 125l94 223q139 -102 324 -102q94 0 151 39q59 39 60 104q0 96 -175 178q-297 154 -296 353q0 154 112 262q115 109 301 129l37 182h193l-35 -180q164 -8 266 -76l-94 -219q-123 74 -279 74q-84 0 -135 -39q-47 -35 -47 -90q0 -80 205 -181q268 -133 268 -350 q0 -178 -131 -291q-117 -102 -305 -123l-37 -196h-195l37 194q-190 10 -319 109z" />
<glyph unicode="%" horiz-adv-x="1779" d="M127 848q0 207 121 352q125 154 317 154q135 0 215 -86q78 -84 78 -219q0 -219 -123 -369q-123 -147 -305 -148q-135 0 -217 84q-86 86 -86 232zM332 -23l989 1375h174l-987 -1375h-176zM352 842q0 -139 101 -140q82 0 137 132q43 106 43 219q0 131 -101 131 q-80 0 -133 -125q-47 -106 -47 -217zM977 297q0 207 121 352q125 154 317 154q135 0 215 -86q78 -84 78 -219q0 -219 -123 -369q-123 -147 -305 -147q-135 0 -217 84q-86 86 -86 231zM1202 291q0 -139 101 -139q82 0 137 131q43 106 43 219q0 131 -101 131q-80 0 -133 -125 q-47 -106 -47 -217z" />
<glyph unicode="&#x26;" horiz-adv-x="1363" d="M29 342q0 268 333 426l3 6q-76 127 -76 234q0 170 121 280q121 115 311 115q156 0 252 -84q98 -86 98 -223q0 -223 -342 -381v-6q63 -98 184 -265q115 131 189 351h272q-119 -340 -325 -537q84 -123 200 -258h-348q-16 16 -74 94q-158 -117 -370 -117q-195 0 -312 99 q-117 100 -116 266zM330 393q0 -84 53 -137q57 -57 158 -57q94 -1 168 65q-129 168 -244 346q-135 -98 -135 -217zM553 1038q0 -92 61 -172q195 90 195 228q0 119 -115 118q-59 0 -100 -49q-41 -51 -41 -125z" />
<glyph unicode="'" horiz-adv-x="405" d="M176 850l64 567h274l-152 -567h-186z" />
<glyph unicode="(" horiz-adv-x="643" d="M125 311q0 664 410 1102h219q-391 -485 -392 -1091q0 -311 84 -560h-208q-113 252 -113 549z" />
<glyph unicode=")" horiz-adv-x="643" d="M-76 -238q391 492 391 1094q0 309 -84 557h211q111 -246 111 -547q0 -659 -408 -1104h-221z" />
<glyph unicode="*" horiz-adv-x="925" d="M129 891l41 211l301 -68v4l-186 262l194 103l80 -316h4l148 316l172 -105l-252 -260l2 -4l338 68l-41 -211l-312 57l-2 -4l195 -252l-195 -104l-81 315l-5 -2l-151 -315l-166 108l250 252l-2 4z" />
<glyph unicode="+" horiz-adv-x="1220" d="M88 453v190h424v449h199v-449h424v-190h-424v-453h-199v453h-424z" />
<glyph unicode="," horiz-adv-x="532" d="M-119 -244q160 322 234 582l319 20q-150 -332 -340 -583z" />
<glyph unicode="-" horiz-adv-x="659" d="M49 434l41 207h531l-41 -207h-531z" />
<glyph unicode="." horiz-adv-x="532" d="M37 150q0 86 55 147q57 61 144 61q76 0 122 -49q47 -49 48 -127q0 -90 -58 -145q-57 -57 -147 -57q-74 0 -119 49q-45 47 -45 121z" />
<glyph unicode="/" horiz-adv-x="667" d="M-82 -82l713 1485h209l-713 -1485h-209z" />
<glyph unicode="0" d="M80 457q0 346 160 606q176 291 465 291q199 -1 299 -140q84 -119 83 -317q0 -350 -153 -616q-174 -303 -467 -304q-199 0 -297 140q-90 123 -90 340zM371 446q0 -236 131 -235q133 0 223 276q72 219 72 408q0 225 -127 225q-132 0 -224 -264q-76 -217 -75 -410z" />
<glyph unicode="1" d="M299 1169l369 162h241l-252 -1331h-282l198 1055l-264 -115z" />
<glyph unicode="2" d="M-6 0l37 190l286 222q436 356 437 532q0 72 -47 117q-49 45 -136 45q-156 0 -282 -78l-60 211q186 115 414 115q195 0 307 -105q106 -98 107 -258q0 -184 -137 -354q-94 -119 -314 -287l-133 -94v-4h477l-45 -252h-911z" />
<glyph unicode="3" d="M16 68l90 231q137 -74 291 -74q121 0 195 56q70 51 70 133q0 178 -273 178h-51l43 225h47q115 0 199 43q96 49 96 133q0 115 -164 115q-160 0 -274 -66l-41 222q166 90 374 90q178 0 291 -78q125 -84 125 -234q0 -121 -86 -211q-82 -86 -209 -118l-2 -4q104 -23 168 -101 q63 -78 64 -192q0 -199 -178 -324q-166 -115 -398 -115q-268 0 -377 91z" />
<glyph unicode="4" d="M20 322l37 198l635 811h363l-148 -782h156l-41 -227h-158l-61 -322h-277l62 322h-568zM352 549h279l61 289l64 260h-8l-175 -262z" />
<glyph unicode="5" d="M27 55l75 236q106 -66 273 -66q119 0 207 58q98 63 98 163q0 205 -330 205q-57 0 -164 -8l191 688h715l-52 -252h-469l-63 -207q45 4 57 5q162 0 275 -82q147 -100 147 -295q0 -242 -182 -387q-172 -135 -434 -136q-246 0 -344 78z" />
<glyph unicode="6" d="M66 444q0 451 329 711q223 178 545 195q51 4 111 0l-45 -240q-39 2 -111 -4q-350 -33 -471 -313l4 -2q115 102 274 102q147 0 244 -102q96 -104 96 -271q0 -219 -149 -379q-154 -164 -383 -164q-215 0 -334 136q-111 125 -110 331zM354 412q0 -90 43 -146q45 -61 123 -61 q99 0 162 96q55 84 55 188q0 184 -164 185q-123 0 -192 -123q-18 -31 -23 -68q-4 -27 -4 -71z" />
<glyph unicode="7" d="M55 0q483 717 723 1075v4h-579l49 252h903l-37 -196l-731 -1135h-328z" />
<glyph unicode="8" d="M37 319q0 262 285 377l2 6q-133 100 -134 250q0 180 150 293q141 109 344 109q168 0 277 -82q117 -90 116 -242q0 -205 -239 -317v-4q182 -104 182 -295q0 -205 -172 -328q-152 -109 -365 -109q-207 2 -329 99q-117 92 -117 243zM346 358q0 -72 45 -116q45 -49 123 -49h4 q76 0 133 51q59 55 60 141q0 141 -172 203q-193 -51 -193 -230zM473 969q0 -113 156 -168q164 55 164 196t-146 142q-72 -1 -123 -52t-51 -118z" />
<glyph unicode="9" d="M98 -18l35 241q31 -4 125 0q150 14 262 84q145 88 217 244l-4 4q-96 -96 -254 -96t-256 100q-98 98 -98 260q0 219 158 375q160 160 383 160q213 0 327 -133q104 -123 105 -332q-2 -459 -340 -729q-209 -164 -506 -178q-80 -4 -154 0zM426 856q0 -80 43 -129t113 -49 q117 0 178 88q20 23 28 63q12 41 13 107q0 190 -162 190q-87 0 -150 -86q-63 -82 -63 -184z" />
<glyph unicode=":" horiz-adv-x="532" d="M37 145q0 84 55 146q57 61 144 61q74 0 120 -49q47 -49 47 -125q0 -88 -57 -143q-57 -57 -145 -58q-74 1 -119 48t-45 120zM162 807q0 84 55 145q57 61 143 62q74 0 121 -49t47 -125q0 -88 -57 -144q-57 -57 -145 -57q-74 0 -119 47t-45 121z" />
<glyph unicode=";" horiz-adv-x="532" d="M-119 -244q156 305 234 582l317 20q-145 -328 -338 -583zM172 807q0 84 55 145q57 61 144 62q74 0 121 -49t47 -125q0 -88 -58 -144q-57 -57 -145 -57q-74 0 -119 47t-45 121z" />
<glyph unicode="&#x3c;" horiz-adv-x="1220" d="M106 457v176l975 457v-218l-735 -325v-4l735 -326v-217z" />
<glyph unicode="=" horiz-adv-x="1220" d="M86 240v190h1047v-190h-1047zM86 666v190h1047v-190h-1047z" />
<glyph unicode="&#x3e;" horiz-adv-x="1220" d="M156 0v215l751 328v4l-751 327v216l974 -451v-188z" />
<glyph unicode="?" horiz-adv-x="894" d="M176 145q0 84 55 144q57 61 144 61q74 0 121 -49q47 -47 47 -123q0 -88 -58 -143q-57 -57 -147 -58q-72 1 -117 48t-45 120zM240 1317q147 88 346 88q150 0 243 -76q94 -78 95 -203q0 -156 -224 -387q-113 -113 -139 -241q4 10 -10 -49h-287l6 53q25 170 187 340 q164 176 164 227q0 96 -119 98q-129 0 -223 -57z" />
<glyph unicode="@" horiz-adv-x="1533" d="M80 432q0 324 211 547q217 233 555 233q270 0 444 -165q174 -168 174 -426q0 -221 -110 -359q-109 -131 -279 -131q-160 0 -174 158h-6q-98 -158 -264 -158q-100 0 -164 72q-66 74 -66 196q0 197 129 334q137 143 351 144q150 0 243 -50l-61 -381q-27 -176 53 -178 q74 -4 131 82q66 98 66 264q0 209 -125 338q-133 135 -363 135q-246 0 -413 -169q-176 -180 -176 -467q0 -254 147 -398q141 -139 379 -139q168 0 295 63l37 -116q-158 -74 -373 -74q-268 0 -449 172q-193 182 -192 473zM608 424q0 -127 101 -127q57 0 108 63t66 152l30 195 q-37 8 -63 8q-100 0 -172 -86q-70 -86 -70 -205z" />
<glyph unicode="A" horiz-adv-x="1265" d="M-57 0l671 1380h379l162 -1380h-311l-27 358h-397l-162 -358h-315zM506 584h299l-29 297l-18 270h-4q-112 -272 -112 -273l1 3z" />
<glyph unicode="B" horiz-adv-x="1191" d="M41 14l254 1344q158 33 362 33q217 0 342 -72q160 -82 160 -254q0 -248 -278 -328v-6q217 -68 217 -301q0 -203 -189 -328q-163 -112 -514 -112h-6q-231 0 -348 24zM369 225q35 -4 112 -4q131 0 213 51q92 57 92 166q0 178 -251 178h-93zM487 831h99q123 0 196 50 q76 51 76 139q0 141 -192 141q-72 0 -117 -8z" />
<glyph unicode="C" horiz-adv-x="1193" d="M100 565q0 459 349 690q213 145 505 146q199 0 303 -58l-81 -239q-94 45 -250 45q-186 0 -316 -107q-190 -160 -190 -444q0 -168 92 -266q96 -100 274 -101q156 0 263 45l24 -237q-133 -59 -362 -59q-276 0 -443 157q-168 158 -168 428z" />
<glyph unicode="D" horiz-adv-x="1394" d="M41 16l256 1344q178 31 383 31q328 0 502 -150q182 -150 182 -432q0 -408 -283 -635q-227 -184 -661 -184q-227 0 -379 26zM381 236q53 -6 129 -7q254 0 391 160q143 162 143 418q0 348 -364 348q-74 0 -125 -10z" />
<glyph unicode="E" horiz-adv-x="1058" d="M39 0l262 1380h817l-49 -252h-520l-57 -294h493l-49 -248h-490l-63 -334h551l-47 -252h-848z" />
<glyph unicode="F" horiz-adv-x="1046" d="M39 0l262 1380h809l-49 -252h-512l-64 -323h482l-49 -248h-480l-104 -557h-295z" />
<glyph unicode="G" horiz-adv-x="1378" d="M98 563q0 393 281 631q242 201 610 201q242 0 365 -62l-88 -248q-119 55 -293 56q-209 0 -350 -111q-201 -156 -201 -446q0 -170 96 -260q92 -88 258 -88q92 0 152 24l55 291h-215l47 235h502l-139 -723q-230 -77 -442 -77h-5q-293 0 -459 151q-174 152 -174 426z" />
<glyph unicode="H" horiz-adv-x="1363" d="M39 0l262 1380h295l-102 -538h499l103 538h297l-263 -1380h-294l108 580h-502l-108 -580h-295z" />
<glyph unicode="I" horiz-adv-x="561" d="M33 0l262 1380h295l-262 -1380h-295z" />
<glyph unicode="J" horiz-adv-x="817" d="M-74 10l58 252q71 -24 156 -24h7q199 0 250 268l166 874h295l-174 -911q-51 -264 -172 -377q-125 -115 -358 -115q-147 0 -228 33z" />
<glyph unicode="K" horiz-adv-x="1208" d="M39 0l262 1380h291l-117 -616h6q12 18 123 158l383 458h369l-559 -596l319 -784h-319l-232 600l-147 -139l-88 -461h-291z" />
<glyph unicode="L" horiz-adv-x="997" d="M39 0l262 1380h295l-213 -1122h530l-49 -258h-825z" />
<glyph unicode="M" horiz-adv-x="1681" d="M6 0l346 1380h396l43 -524q24 -359 24 -434v-6h8q61 178 187 440l256 524h399l-186 -1380h-287l84 569q45 295 92 539h-6q-129 -301 -238 -520l-282 -565h-230l-49 559q-16 201 -31 526h-4l-114 -539l-138 -569h-270z" />
<glyph unicode="N" horiz-adv-x="1363" d="M39 0l262 1380h346l182 -526q74 -236 125 -471h7q8 193 63 496l94 501h277l-262 -1380h-306l-192 551q-88 268 -135 481h-6q-20 -188 -88 -549l-93 -483h-274z" />
<glyph unicode="O" horiz-adv-x="1443" d="M98 553q0 410 254 653q207 197 504 197q266 0 416 -164q141 -156 141 -412q0 -412 -246 -651q-205 -199 -510 -199q-260 0 -413 168q-145 158 -146 408zM412 563q0 -154 69 -244q76 -96 219 -96q131 0 232 101q168 168 168 495q0 338 -279 338q-137 0 -237 -104 q-172 -168 -172 -490z" />
<glyph unicode="P" horiz-adv-x="1144" d="M39 0l256 1356q139 35 360 35q238 0 367 -91q150 -100 149 -294q0 -244 -186 -388q-166 -129 -442 -129l-121 9l-94 -498h-289zM467 739q51 -10 115 -10q129 0 213 74q80 72 79 178q0 174 -208 174q-72 0 -121 -8z" />
<glyph unicode="Q" horiz-adv-x="1443" d="M98 557q0 389 240 635q211 211 520 211q266 0 418 -172q137 -158 137 -404q0 -397 -231 -632q-94 -90 -203 -134v-6q154 -41 315 -69l-102 -234q-289 84 -516 195q-80 35 -98 35q-209 14 -340 163q-139 158 -140 412zM412 557q0 -154 69 -242q76 -94 217 -94 q127 0 232 101q170 174 170 503q0 332 -277 332q-135 0 -237 -102q-174 -174 -174 -498z" />
<glyph unicode="R" horiz-adv-x="1193" d="M41 0l258 1356q143 35 369 35q238 0 362 -80q154 -90 154 -269q0 -291 -314 -391v-6q111 -49 131 -252q43 -371 54 -393h-303q-20 59 -39 326q-10 123 -56 172q-43 47 -133 47h-90l-102 -545h-291zM479 766h121q121 0 199 65q78 66 78 166q0 162 -211 162q-74 0 -115 -10 z" />
<glyph unicode="S" horiz-adv-x="1044" d="M0 76l98 243q147 -88 326 -88q92 0 154 41q66 43 65 119q0 98 -186 197q-285 152 -285 364q0 205 158 330q152 119 385 119q195 0 325 -68l-92 -246q-111 60 -251 60h-5q-100 0 -157 -43q-53 -41 -54 -100q0 -84 201 -197q274 -141 274 -365q0 -221 -165 -348 q-154 -117 -396 -117q-262 2 -395 99z" />
<glyph unicode="T" horiz-adv-x="1079" d="M137 1122l51 258h1026l-49 -258h-368l-213 -1122h-295l213 1122h-365z" />
<glyph unicode="U" horiz-adv-x="1341" d="M129 418q0 84 21 192l145 770h295l-150 -794q-16 -76 -16 -162q0 -88 51 -141q53 -57 150 -58q236 0 305 359l151 796h295l-149 -784q-61 -319 -209 -465q-152 -154 -430 -154h-8q-212 0 -328 111q-123 113 -123 330z" />
<glyph unicode="V" horiz-adv-x="1251" d="M164 1380h305l61 -657q20 -213 33 -424h4q68 178 185 426l309 655h330l-713 -1380h-342z" />
<glyph unicode="W" horiz-adv-x="1769" d="M188 1380h299v-614q0 -201 -8 -447h4q121 330 164 443l246 618h324l-5 -616q0 -168 -12 -438h4q76 229 152 440l239 614h310l-609 -1380h-319l-10 567v57q0 199 12 400h-4q-125 -360 -168 -465l-238 -559h-327z" />
<glyph unicode="X" horiz-adv-x="1165" d="M-84 0l516 705l-242 675h312l84 -264q49 -172 63 -229h6q70 129 131 233l160 260h352l-503 -678l264 -702h-314l-94 279q-66 205 -73 235h-5q-20 -33 -65 -115l-74 -131l-164 -268h-354z" />
<glyph unicode="Y" horiz-adv-x="1167" d="M145 1380h316l88 -350q39 -164 53 -250h4l142 252l206 348h353l-596 -811l-107 -569h-295l107 563z" />
<glyph unicode="Z" horiz-adv-x="1132" d="M-51 0l31 170l800 950v6h-561l51 254h957l-35 -182l-786 -938v-6h618l-49 -254h-1026z" />
<glyph unicode="[" horiz-adv-x="643" d="M0 -229l311 1634h412l-33 -170h-190l-248 -1294h190l-30 -170h-412z" />
<glyph unicode="\" horiz-adv-x="690" d="M106 1403h203l332 -1485h-205z" />
<glyph unicode="]" horiz-adv-x="643" d="M-53 -229l33 170h190l246 1294h-191l33 170h412l-312 -1634h-411z" />
<glyph unicode="^" horiz-adv-x="1220" d="M74 362l426 969h188l426 -969h-221l-297 730h-6l-299 -730h-217z" />
<glyph unicode="_" horiz-adv-x="1024" d="M-131 -256l20 102h1024l-20 -102h-1024z" />
<glyph unicode="`" horiz-adv-x="808" d="M244 1434h284l154 -312h-211z" />
<glyph unicode="a" horiz-adv-x="1134" d="M51 326q0 281 174 475q199 223 543 223q176 0 332 -49l-105 -524q-42 -222 -42 -405q0 -23 1 -46h-270l12 199h-4q-123 -221 -338 -222q-135 0 -219 97q-84 96 -84 252zM358 381q0 -166 121 -166q74 0 137 82q74 92 107 264l45 232q-45 8 -80 8q-135 0 -235 -139 q-94 -131 -95 -281z" />
<glyph unicode="b" horiz-adv-x="1146" d="M74 258q0 74 22 182l203 1014h297l-119 -573h4q121 143 310 143q147 0 229 -109q74 -96 74 -241q0 -270 -162 -469q-186 -227 -502 -228q-356 0 -356 281zM379 311q4 -110 111 -110h2q121 0 210 141q82 127 82 270q0 172 -131 172q-82 0 -149 -75q-72 -78 -96 -205 l-19 -82q-10 -57 -10 -98v-13z" />
<glyph unicode="c" horiz-adv-x="890" d="M59 389q0 270 185 451q186 184 469 184q115 0 205 -33l-74 -227q-57 24 -129 24h-6q-152 0 -248 -112q-92 -106 -92 -254q0 -98 57 -156q53 -51 139 -51q96 0 199 41l2 -223q-111 -53 -285 -53q-188 0 -303 108q-119 111 -119 301z" />
<glyph unicode="d" horiz-adv-x="1146" d="M53 356q0 270 174 465q180 205 457 205q74 0 137 -25l88 453h293l-203 -1065q-41 -211 -47 -389h-270l14 162h-4q-123 -184 -330 -185q-133 0 -219 99q-90 104 -90 280zM360 403q0 -188 138 -188q70 0 133 70q70 78 96 213l53 268q-41 35 -116 35q-129 0 -220 -127 q-84 -119 -84 -271z" />
<glyph unicode="e" horiz-adv-x="1026" d="M57 401q0 244 156 426q168 197 428 197q154 0 250 -80q98 -84 98 -221q0 -337 -596 -337q-27 0 -55 1q4 -63 33 -102q59 -78 192 -78q150 0 281 63l20 -213q-158 -80 -375 -80q-211 0 -323 115q-109 109 -109 309zM367 602h11q335 0 335 123q0 84 -109 84q-94 0 -162 -70 q-57 -57 -75 -137z" />
<glyph unicode="f" horiz-adv-x="673" d="M61 0l148 778h-131l43 226h131l8 51q37 219 168 327q111 94 285 95q102 0 155 -25l-51 -233q-39 16 -94 16q-139 0 -172 -182l-10 -49h198l-43 -226h-196l-146 -778h-293z" />
<glyph unicode="g" horiz-adv-x="1142" d="M23 -365l69 226q94 -55 262 -56q242 0 299 267l17 86h-4q-113 -150 -287 -150q-145 0 -234 107q-86 100 -88 252v6q0 260 172 446q188 205 500 205q199 0 371 -70l-152 -825q-61 -324 -211 -444q-141 -113 -387 -113q-215 0 -327 63zM369 412q0 -176 135 -176 q74 0 137 75q63 78 88 201l51 268q-41 18 -106 19q-129 0 -219 -123q-86 -117 -86 -264z" />
<glyph unicode="h" horiz-adv-x="1153" d="M27 0l276 1454h295l-113 -582h4q137 152 320 152q117 0 184 -70q68 -72 68 -200q0 -78 -19 -181l-108 -573h-295l104 549q12 59 13 123q0 114 -99 114h-2q-80 0 -147 -88q-72 -92 -98 -239l-88 -459h-295z" />
<glyph unicode="i" horiz-adv-x="542" d="M27 0l190 1001h295l-190 -1001h-295zM258 1270q0 74 51 121q49 47 119 47q66 0 109 -39q41 -41 41 -107q0 -76 -52 -123q-49 -43 -123 -43h-4q-61 0 -100 39q-41 41 -41 105z" />
<glyph unicode="j" horiz-adv-x="563" d="M-195 -412l33 222q41 -4 66 -5q119 0 157 215l187 981h293l-183 -968q-45 -248 -139 -355q-94 -106 -274 -106q-80 0 -140 16zM279 1270q0 74 51 121q49 47 119 47q66 0 106 -39q41 -41 41 -107q0 -76 -51 -123q-49 -43 -125 -43q-62 0 -101 39q-41 41 -40 105z" />
<glyph unicode="k" horiz-adv-x="1085" d="M27 0l276 1454h293l-166 -870h4l90 112l256 305h365l-426 -413l278 -588h-329l-176 428l-111 -106l-62 -322h-292z" />
<glyph unicode="l" horiz-adv-x="542" d="M27 0l278 1454h295l-278 -1454h-295z" />
<glyph unicode="m" horiz-adv-x="1701" d="M27 0l125 676q29 166 51 325h252l-19 -161h4q133 186 344 186q111 0 177 -61q55 -53 61 -129q133 190 346 190q115 0 180 -72q63 -72 64 -198q0 -70 -17 -172l-108 -584h-287l100 549q14 68 15 121q0 118 -96 118h-2q-76 0 -140 -90q-68 -94 -96 -243l-84 -455h-285 l105 551q12 82 12 115q0 122 -92 122h-2q-76 0 -146 -94q-70 -96 -96 -243l-82 -451h-284z" />
<glyph unicode="n" horiz-adv-x="1153" d="M25 0l127 676q14 70 55 325h260l-18 -165h4q137 188 350 188q258 0 258 -274q0 -70 -17 -168l-110 -582h-297l106 555q10 57 11 111q0 120 -99 120h-2q-76 0 -145 -88q-76 -96 -105 -254l-84 -444h-294z" />
<glyph unicode="o" horiz-adv-x="1144" d="M61 393q0 264 166 447q170 186 432 186q195 0 314 -121q111 -115 110 -293q0 -274 -170 -454q-168 -180 -428 -181q-190 0 -307 115t-117 301zM367 397q0 -194 159 -194h2q111 0 185 139q66 125 65 268q0 190 -157 191q-117 -1 -191 -144q-63 -123 -63 -260z" />
<glyph unicode="p" horiz-adv-x="1150" d="M-55 -406l194 1020q27 141 58 396h264l-19 -154h4q127 168 322 168q156 0 244 -113q80 -104 80 -268q0 -270 -160 -463q-168 -203 -422 -203q-115 0 -184 41h-7l-79 -424h-295zM367 248q53 -47 135 -47q115 0 198 137q82 129 82 283q0 163 -127 163h-2q-84 0 -151 -86 q-72 -88 -99 -233z" />
<glyph unicode="q" horiz-adv-x="1146" d="M53 356q0 264 168 455q190 213 514 213q152 0 371 -59l-256 -1371h-295l121 551h-4q-113 -168 -310 -168q-139 0 -223 105q-86 104 -86 274zM360 393q0 -178 125 -178q80 0 148 78q72 82 96 213l51 272q-45 20 -114 21q-129 0 -220 -131q-86 -125 -86 -275z" />
<glyph unicode="r" horiz-adv-x="757" d="M27 0l112 596q8 41 51 405h256l-18 -204h6q123 227 320 227q37 0 55 -2l-57 -287q-14 2 -47 2q-246 0 -314 -364l-69 -373h-295z" />
<glyph unicode="s" horiz-adv-x="851" d="M-8 57l71 207q137 -69 258 -69h3q127 0 127 90q0 68 -125 129q-211 106 -211 266q0 156 123 252q123 94 317 94q164 0 258 -51l-72 -209q-96 43 -198 43q-131 0 -131 -88q0 -55 120 -115q225 -113 226 -274q0 -168 -131 -262q-122 -90 -321 -90h-9q-203 4 -305 77z" />
<glyph unicode="t" horiz-adv-x="712" d="M82 778l41 226h129l37 188l303 82l-51 -270h215l-45 -226h-213l-68 -340q-16 -78 -16 -127q0 -84 86 -84q55 0 80 4l-33 -231q-61 -23 -174 -23q-262 0 -262 218q0 80 22 186l76 397h-127z" />
<glyph unicode="u" horiz-adv-x="1146" d="M84 258q0 84 20 184l107 559h295l-103 -536q-14 -82 -14 -133q0 -115 100 -115q78 0 144 86q70 88 98 234l88 464h293l-127 -675q-31 -156 -53 -326h-260l18 162l-4 2q-145 -186 -344 -187q-258 0 -258 281z" />
<glyph unicode="v" horiz-adv-x="1048" d="M94 1001h303l74 -710h6q43 115 113 270l201 440h329l-557 -1001h-301z" />
<glyph unicode="w" horiz-adv-x="1501" d="M104 1001h299l3 -423q0 -135 -11 -320h4q25 76 123 309l197 434h242l24 -419q5 -127 5 -215q0 -66 -3 -109h6q35 119 109 328l172 415h297l-488 -1001h-276l-29 348q-8 106 -8 322h-4q-98 -262 -119 -308l-170 -362h-278z" />
<glyph unicode="x" horiz-adv-x="1019" d="M-98 0l434 518l-236 483h324l123 -317h6l106 160l111 157h338l-422 -487l234 -514h-324l-64 160q-31 78 -63 182h-6l-43 -76q-31 -51 -58 -92l-120 -174h-340z" />
<glyph unicode="y" horiz-adv-x="1017" d="M-51 -209q100 31 170 78q106 74 164 174q10 20 4 49l-197 909h309l95 -675h4q55 150 88 233l182 442h311l-358 -720q-199 -395 -385 -572q-154 -145 -322 -172z" />
<glyph unicode="z" horiz-adv-x="921" d="M-53 0l33 178l325 348q121 127 244 232l2 4h-428l47 239h782l-34 -186l-318 -340q-141 -147 -244 -231l-2 -4h471l-47 -240h-831z" />
<glyph unicode="{" horiz-adv-x="643" d="M63 510l29 158q154 6 180 139q10 51 21 160q10 111 18 161q53 276 353 277h75l-32 -172h-37q-119 0 -150 -146q-8 -39 -16 -116q-8 -96 -17 -142q-29 -203 -211 -239v-4q135 -31 136 -152q0 -66 -43 -207q-43 -150 -43 -190q0 -94 98 -94h37l-31 -172h-61 q-268 0 -269 217q0 57 47 227q47 158 48 195q0 98 -132 100z" />
<glyph unicode="|" horiz-adv-x="491" d="M178 -512v2048h201v-2048h-201z" />
<glyph unicode="}" horiz-adv-x="643" d="M-70 -229l33 172h37q121 0 150 147q8 39 16 117q8 94 16 139q29 203 211 240v4q-135 31 -135 151q0 45 45 207q43 152 43 191q0 94 -98 94h-37l31 172h61q268 0 268 -217q0 -82 -47 -227q-49 -147 -49 -195q0 -98 131 -100l-28 -158q-154 -6 -181 -139q-10 -51 -18 -160 q-12 -111 -21 -162q-53 -276 -352 -276h-76z" />
<glyph unicode="~" horiz-adv-x="1220" d="M100 395q-2 379 285 379q117 0 283 -96q141 -82 192 -82q80 0 84 166h195q16 -383 -273 -383q-121 0 -299 108q-131 74 -178 74q-84 0 -94 -166h-195z" />
<glyph unicode="&#xa2;" d="M172 584q0 233 152 401q143 160 364 199l37 194h193l-35 -186q111 -4 176 -39l-86 -223q-74 35 -174 35q-131 0 -221 -97q-90 -98 -91 -245q0 -104 64 -164q61 -57 160 -58q86 0 186 39l12 -219q-94 -45 -223 -49l-35 -197h-194l39 203q-154 27 -242 137q-82 104 -82 269 z" />
<glyph unicode="&#xa3;" d="M29 0l28 166q188 78 256 258q23 51 19 127h-193l41 211h150q4 131 26 223q94 369 484 369q145 0 221 -51l-78 -226q-59 33 -154 33q-168 0 -206 -180q-14 -76 -11 -168h281l-41 -211h-248q-6 -61 -29 -121q-37 -113 -131 -176v-4h535l-39 -250h-911z" />
<glyph unicode="&#xa5;" d="M61 328l29 145h305l25 131h-307l28 146h236l-217 581h307l76 -327q37 -166 47 -224h6q90 166 127 226l203 325h325l-450 -581h233l-28 -146h-312l-22 -131h311l-29 -145h-309l-63 -328h-275l62 328h-308z" />
<glyph unicode="&#xa8;" horiz-adv-x="808" d="M197 1270q0 68 45 110q45 43 110 43q59 0 97 -39q37 -39 36 -96q0 -70 -45 -112q-43 -41 -108 -41q-55 -1 -94 36q-41 37 -41 99zM616 1270q0 68 46 110q45 43 110 43q59 0 96 -39t37 -96q0 -70 -45 -112q-43 -41 -108 -41q-58 -1 -95 36q-41 37 -41 99z" />
<glyph unicode="&#xa9;" horiz-adv-x="1378" d="M106 696q0 262 183 447q184 184 446 184q261 0 441 -184q182 -184 182 -447q0 -264 -182 -448q-182 -186 -443 -187q-260 0 -444 187q-182 184 -183 448zM240 692q0 -217 143 -366q143 -150 350 -150q205 -2 348 150t144 368q0 217 -144 367q-143 152 -350 151 q-207 1 -348 -151q-143 -152 -143 -369zM385 684q0 170 123 279q113 102 274 102q174 0 228 -57l-31 -111q-76 47 -197 47q-119 0 -184 -67q-68 -68 -68 -187q0 -113 68 -182q70 -74 182 -74q131 0 209 51l31 -106q-100 -66 -256 -66q-176 0 -279 107q-100 102 -100 264z " />
<glyph unicode="&#xab;" horiz-adv-x="944" d="M45 516l277 391h225l-295 -395l197 -385h-205zM440 516l277 391h225l-295 -395l197 -385h-205z" />
<glyph unicode="&#xad;" horiz-adv-x="659" d="M49 434l41 207h531l-41 -207h-531z" />
<glyph unicode="&#xae;" horiz-adv-x="837" d="M168 1051q0 145 106 249q109 102 261 103q152 -1 256 -103t104 -249t-104 -250q-104 -104 -259 -105q-152 0 -258 105q-106 102 -106 250zM276 1049q0 -111 74 -187q74 -78 182 -78q109 -2 185 78q72 76 71 189q0 111 -73 186q-74 78 -185 78q-108 0 -182 -78 q-72 -78 -72 -188zM387 885v321q68 12 143 13q92 0 132 -27q35 -20 34 -70q0 -53 -73 -73v-5q51 -14 65 -81q14 -63 23 -78h-111q-8 10 -25 69q-8 47 -55 47h-33v-116h-100zM492 1069h28q61 0 62 39q0 41 -58 41l-32 -2v-78z" />
<glyph unicode="&#xb4;" horiz-adv-x="808" d="M367 1122l192 312h291l-266 -312h-217z" />
<glyph unicode="&#xb8;" horiz-adv-x="808" d="M49 -381l51 117q53 -33 109 -33q76 0 76 57q0 63 -148 74l113 174h162l-70 -98q125 -33 125 -133q0 -102 -86 -156q-70 -45 -172 -45t-160 43z" />
<glyph unicode="&#xbb;" horiz-adv-x="942" d="M10 127l295 397l-196 383h204l199 -391l-276 -389h-226zM406 127l294 397l-196 383h205l198 -391l-276 -389h-225z" />
<glyph unicode="&#x2c6;" horiz-adv-x="808" d="M221 1122l248 312h203l153 -312h-190l-82 162h-4l-119 -162h-209z" />
<glyph unicode="&#x2da;" horiz-adv-x="808" d="M322 1286q-2 98 69 160q72 59 182 59q95 0 156 -49q63 -51 64 -143q-2 -98 -76 -156q-70 -55 -178 -55q-90 0 -150 49q-63 51 -67 135zM463 1294q0 -90 88 -90q100 0 100 105q0 94 -92 94q-96 0 -96 -109z" />
<glyph unicode="&#x2dc;" horiz-adv-x="808" d="M254 1143q35 258 197 258q57 0 127 -41q59 -39 79 -39q41 0 66 90h141q-37 -252 -200 -252q-72 0 -132 39q-47 37 -77 37q-39 0 -58 -92h-143z" />
<glyph unicode="&#x401;" horiz-adv-x="1058" d="M39 0l262 1380h815l-49 -252h-518l-57 -294h491l-47 -248h-490l-65 -334h551l-47 -252h-846zM391 1587q0 66 45 109q41 41 105 41q57 0 94 -39q37 -37 37 -92q0 -66 -45 -109q-43 -41 -105 -41q-53 0 -90 35q-41 39 -41 96zM815 1587q0 66 45 109q41 41 105 41 q57 0 94 -39q37 -37 37 -92q0 -66 -45 -109q-43 -41 -105 -41q-53 0 -90 35q-41 39 -41 96z" />
<glyph unicode="&#x402;" horiz-adv-x="1417" d="M137 1124l53 256h1092l-51 -256h-451l-47 -250h4q94 49 211 50q182 0 283 -125q98 -121 98 -324q0 -346 -207 -563q-180 -188 -422 -217l-45 252q135 25 228 121q131 135 131 366q0 246 -187 246q-70 0 -137 -41l-119 -639h-290l208 1124h-352z" />
<glyph unicode="&#x403;" horiz-adv-x="935" d="M39 0l262 1380h770l-49 -258h-475l-213 -1122h-295zM539 1454l194 258h328l-270 -258h-252z" />
<glyph unicode="&#x404;" horiz-adv-x="1157" d="M100 575q0 406 285 639q227 186 549 187q197 0 319 -60l-84 -237q-104 51 -260 49q-174 -2 -299 -94q-127 -94 -168 -254h570l-37 -234h-555q-2 -10 -2 -39q2 -119 86 -206q98 -100 266 -101q152 0 281 54l22 -236q-135 -66 -368 -66q-289 0 -451 170q-154 162 -154 428z " />
<glyph unicode="&#x405;" horiz-adv-x="1044" d="M0 76l98 243q147 -88 326 -88q92 0 154 41q66 43 65 119q0 98 -186 197q-285 152 -285 364q0 205 158 330q152 119 385 119q195 0 325 -68l-92 -246q-113 61 -256 60q-100 0 -157 -43q-53 -41 -54 -100q0 -84 201 -197q274 -141 274 -365q0 -221 -165 -348 q-154 -119 -396 -117q-262 2 -395 99z" />
<glyph unicode="&#x406;" horiz-adv-x="561" d="M33 0l262 1380h295l-262 -1380h-295z" />
<glyph unicode="&#x407;" horiz-adv-x="561" d="M33 0l260 1380h297l-262 -1380h-295zM117 1587q0 66 45 109q41 41 104 41q57 0 94 -39q37 -37 37 -92q0 -66 -45 -109q-43 -41 -104 -41q-53 0 -90 35q-41 39 -41 96zM541 1587q0 66 45 109q41 41 104 41q57 0 94 -39q37 -37 37 -92q0 -66 -45 -109q-43 -41 -104 -41 q-53 0 -90 35q-41 39 -41 96z" />
<glyph unicode="&#x408;" horiz-adv-x="817" d="M-74 10l58 252q74 -25 163 -24q199 0 250 268l166 874h295l-174 -911q-51 -264 -172 -377q-125 -115 -358 -115q-147 0 -228 33z" />
<glyph unicode="&#x409;" horiz-adv-x="1882" d="M-68 225q121 4 201 86q129 131 191 467l112 602h869l-95 -481q61 12 152 12q201 0 319 -98q129 -109 129 -303q0 -205 -139 -340q-190 -184 -584 -184q-209 0 -335 20l211 1122h-293l-66 -329q-102 -528 -293 -699q-139 -123 -352 -123zM1081 223q33 -4 103 -4 q121 0 213 64q100 72 100 190q0 100 -65 156q-59 49 -158 49q-57 0 -109 -10z" />
<glyph unicode="&#x40a;" horiz-adv-x="1900" d="M41 0l262 1380h295l-100 -524h434l98 524h295l-98 -499q59 14 151 14q197 0 320 -98q133 -106 133 -301t-139 -328q-184 -182 -584 -182q-209 0 -336 20l115 608h-436l-115 -614h-295zM1102 223q33 -4 104 -4q123 0 213 64q98 68 99 180q0 98 -70 151q-61 47 -160 48 q-55 0 -106 -11z" />
<glyph unicode="&#x40b;" horiz-adv-x="1423" d="M137 1126l51 254h1078l-52 -254h-442l-57 -292h6q133 84 285 81q303 0 299 -311q-2 -88 -25 -213l-68 -391h-294l69 377q16 90 17 153q0 141 -150 142q-102 0 -184 -74l-111 -598h-291l211 1126h-342z" />
<glyph unicode="&#x40c;" horiz-adv-x="1198" d="M39 0l262 1380h291l-113 -581h33l471 581h363l-578 -624q162 -72 231 -426q55 -268 82 -330h-305q-23 61 -71 315q-27 139 -70 197q-51 72 -158 72h-37l-110 -584h-291zM618 1454l193 258h328l-271 -258h-250z" />
<glyph unicode="&#x40e;" horiz-adv-x="1138" d="M78 12l51 240q45 -16 115 -16q117 0 190 126q27 43 8 97l-288 921h325l119 -495q18 -70 61 -271h9q80 207 114 287l203 479h342l-373 -718q-225 -438 -381 -572q-127 -113 -307 -113q-119 0 -188 35zM483 1712h207q-14 -123 80 -123q88 0 119 123h209q-57 -250 -344 -250 q-276 0 -271 250z" />
<glyph unicode="&#x40f;" horiz-adv-x="1327" d="M39 0l260 1380h297l-215 -1128h465l215 1128h295l-260 -1380h-389l-93 -379h-233l59 379h-401z" />
<glyph unicode="&#x410;" horiz-adv-x="1265" d="M-57 0l671 1380h379l162 -1380h-311l-27 358h-397l-162 -358h-315zM506 584h299l-29 297l-18 270h-4l-56 -137q-35 -88 -55 -133z" />
<glyph unicode="&#x411;" horiz-adv-x="1173" d="M41 6l258 1374h840l-45 -254h-547l-47 -247q72 14 153 14q193 0 314 -98q129 -106 129 -297q0 -229 -176 -365q-188 -147 -531 -147q-221 0 -348 20zM375 219q33 -6 104 -6q119 0 207 63q98 72 98 189q0 98 -61 151q-59 53 -158 54q-57 0 -108 -11z" />
<glyph unicode="&#x412;" horiz-adv-x="1200" d="M41 14l254 1344q158 33 362 33q217 0 342 -72q160 -82 160 -254q0 -248 -278 -328v-6q217 -68 217 -301q0 -203 -189 -328q-164 -113 -520 -112q-231 0 -348 24zM369 225q35 -4 112 -4q131 0 213 51q92 57 92 166q0 178 -251 178h-93zM487 831h99q123 0 196 50 q76 51 76 139q0 141 -192 141q-72 0 -117 -8z" />
<glyph unicode="&#x413;" horiz-adv-x="935" d="M39 0l262 1380h770l-49 -258h-475l-213 -1122h-295z" />
<glyph unicode="&#x414;" horiz-adv-x="1351" d="M-131 -350l100 581l109 11q125 180 201 358q82 195 124 418l70 362h860l-215 -1140l131 -9l-135 -581h-237l51 350h-733l-93 -350h-233zM383 246h444l164 882h-297l-37 -192q-43 -215 -116 -395q-68 -164 -158 -295z" />
<glyph unicode="&#x415;" horiz-adv-x="1058" d="M39 0l262 1380h817l-49 -252h-520l-57 -294h493l-49 -248h-490l-63 -334h551l-47 -252h-848z" />
<glyph unicode="&#x416;" horiz-adv-x="1730" d="M-74 0q27 41 183 367q90 188 172 270q88 88 229 121l-336 622h315l238 -587h31l106 587h283l-111 -589h33l447 589h333l-557 -624q178 -59 246 -422q33 -227 74 -334h-297q-35 104 -70 332q-39 258 -209 258h-32l-111 -590h-285l113 592h-33q-170 0 -287 -254 q-176 -358 -163 -338h-312z" />
<glyph unicode="&#x417;" horiz-adv-x="1038" d="M-23 88l91 223q143 -84 307 -84q109 0 180 49q82 53 82 150q0 90 -86 137q-72 41 -166 39h-109l39 223h95q121 0 198 45q88 49 86 148q0 68 -49 106q-45 35 -119 35q-131 0 -278 -76l-60 209q172 109 404 109q172 0 282 -76q127 -88 127 -256q0 -131 -92 -227 q-84 -88 -213 -117l-2 -4q109 -25 176 -103q72 -84 72 -202q0 -213 -176 -332q-156 -106 -387 -107q-240 0 -402 111z" />
<glyph unicode="&#x418;" horiz-adv-x="1349" d="M39 0l262 1380h279l-80 -422q-57 -299 -135 -602l6 -2q96 162 313 480l375 546h319l-262 -1380h-278l82 422q68 352 118 551h-6q-113 -205 -299 -477l-350 -496h-344z" />
<glyph unicode="&#x419;" horiz-adv-x="1349" d="M41 0l260 1380h281l-82 -422q-53 -279 -133 -602l6 -2q68 115 311 480l375 546h319l-262 -1380h-278l82 422q82 410 118 551h-6q-100 -186 -299 -477l-348 -496h-344zM584 1706h207q-14 -123 79 -123q88 0 119 123h209q-57 -250 -344 -250q-276 0 -270 250z" />
<glyph unicode="&#x41a;" horiz-adv-x="1198" d="M39 0l262 1380h291l-113 -581h33l471 581h363l-578 -624q162 -72 231 -426q55 -268 82 -330h-305q-23 61 -71 315q-27 139 -70 197q-51 72 -158 72h-37l-110 -584h-291z" />
<glyph unicode="&#x41b;" horiz-adv-x="1304" d="M-68 225q125 12 205 94q123 133 182 457l115 604h899l-262 -1380h-295l215 1128h-323l-66 -333q-100 -516 -285 -684q-133 -131 -356 -134z" />
<glyph unicode="&#x41c;" horiz-adv-x="1681" d="M6 0l346 1380h396l43 -524q25 -373 24 -440h8q61 178 187 440l256 524h399l-186 -1380h-287l84 569q45 295 92 539h-6q-129 -301 -238 -520l-282 -565h-230l-49 559q-16 201 -31 526h-4l-114 -539l-138 -569h-270z" />
<glyph unicode="&#x41d;" horiz-adv-x="1363" d="M39 0l262 1380h295l-102 -538h499l103 538h297l-263 -1380h-294l108 580h-502l-108 -580h-295z" />
<glyph unicode="&#x41e;" horiz-adv-x="1443" d="M98 553q0 399 250 649q207 201 508 201q266 0 416 -164q141 -156 141 -412q0 -410 -244 -649q-201 -201 -512 -201q-259 0 -413 168q-145 158 -146 408zM412 563q0 -154 69 -244q76 -96 219 -96q168 0 289 201q111 184 111 395q0 338 -279 338q-176 0 -297 -199 q-113 -180 -112 -395z" />
<glyph unicode="&#x41f;" horiz-adv-x="1335" d="M39 0l262 1380h1063l-262 -1380h-295l215 1128h-471l-217 -1128h-295z" />
<glyph unicode="&#x420;" horiz-adv-x="1144" d="M39 0l256 1356q139 35 360 35q238 0 367 -91q150 -100 149 -294q0 -244 -186 -388q-166 -129 -442 -129l-121 9l-94 -498h-289zM467 739q51 -10 115 -10q129 0 213 74q80 72 79 178q0 174 -208 174q-72 0 -121 -8z" />
<glyph unicode="&#x421;" horiz-adv-x="1191" d="M100 565q0 459 349 690q213 145 505 146q199 0 303 -58l-81 -239q-94 45 -250 45q-186 0 -316 -107q-190 -160 -190 -444q0 -168 92 -266q96 -100 274 -101q156 0 263 45l24 -237q-133 -59 -362 -59q-276 0 -443 157q-168 158 -168 428z" />
<glyph unicode="&#x422;" horiz-adv-x="1079" d="M137 1122l51 258h1026l-49 -258h-368l-213 -1122h-295l213 1122h-365z" />
<glyph unicode="&#x423;" horiz-adv-x="1138" d="M78 12l51 240q45 -16 115 -16q117 0 190 126q27 43 8 97l-288 921h325l119 -495q18 -70 61 -271h7l114 287l205 479h342l-373 -718q-225 -438 -381 -572q-127 -113 -309 -113q-117 0 -186 35z" />
<glyph unicode="&#x424;" horiz-adv-x="1585" d="M109 614q0 346 241 543q199 162 459 166l22 115h277l-23 -121q197 -35 320 -164q143 -150 143 -389q0 -336 -227 -528q-197 -166 -473 -170l-23 -125h-276l22 131q-195 37 -317 166q-145 147 -145 376zM408 614q0 -274 204 -329l156 827q-139 -8 -244 -141 q-117 -145 -116 -357zM889 276q150 10 250 140q111 143 110 370q0 279 -205 320z" />
<glyph unicode="&#x425;" horiz-adv-x="1165" d="M-84 0l516 705l-242 675h312l84 -264q49 -172 63 -229h6q94 172 131 233l160 260h352l-503 -678l264 -702h-314l-94 279q-66 205 -73 235h-5q-20 -33 -65 -115l-74 -131l-164 -268h-354z" />
<glyph unicode="&#x426;" horiz-adv-x="1368" d="M39 0l262 1380h295l-215 -1128h465l215 1128h295l-215 -1140l129 -9l-135 -581h-236l51 350h-911z" />
<glyph unicode="&#x427;" horiz-adv-x="1232" d="M168 801q0 47 20 166l80 413h295l-76 -391q-14 -72 -14 -115q0 -150 184 -149q115 0 197 49l115 606h293l-263 -1382h-294l104 541l-6 2q-106 -55 -271 -56q-170 0 -266 84q-98 84 -98 232z" />
<glyph unicode="&#x428;" horiz-adv-x="1792" d="M39 0l262 1380h289l-215 -1128h327l216 1128h286l-213 -1128h326l215 1128h289l-262 -1380h-1520z" />
<glyph unicode="&#x429;" horiz-adv-x="1832" d="M41 0l262 1380h289l-215 -1128h328l215 1128h286l-213 -1128h326l215 1128h289l-217 -1140l131 -9l-135 -581h-238l51 350h-1374z" />
<glyph unicode="&#x42a;" horiz-adv-x="1402" d="M137 1124l49 256h639l-96 -481q82 12 148 12q205 0 325 -102q129 -109 129 -303q0 -199 -135 -334q-188 -186 -592 -186q-209 0 -332 20l211 1118h-346zM600 225q35 -6 105 -6q121 0 210 64q100 70 101 186q0 98 -62 156q-61 53 -161 53q-55 0 -109 -12z" />
<glyph unicode="&#x42b;" horiz-adv-x="1671" d="M39 6l258 1374h295l-96 -483q72 14 155 14q184 0 301 -100q127 -109 127 -303q0 -201 -137 -338q-184 -184 -569 -184q-207 0 -334 20zM369 225q23 -6 102 -6q113 0 197 62q96 72 96 188q0 98 -57 156q-55 53 -148 53q-47 0 -108 -12zM1126 0l265 1380h307l-264 -1380 h-308z" />
<glyph unicode="&#x42c;" horiz-adv-x="1171" d="M41 6l258 1374h293l-94 -483q68 14 153 14q199 0 320 -100q129 -109 129 -305q0 -197 -133 -330q-193 -190 -594 -190q-209 0 -332 20zM369 225q33 -6 104 -6q121 0 211 62q100 72 100 188q0 100 -63 156q-59 53 -162 53q-49 0 -106 -12z" />
<glyph unicode="&#x42d;" horiz-adv-x="1177" d="M-20 57l73 234q121 -61 287 -62q178 0 303 99q117 92 152 241h-572l43 236h565q2 10 3 33q-4 133 -86 219q-92 96 -246 96q-135 0 -266 -51l-58 223q164 78 365 78q276 0 438 -170q160 -168 160 -451q0 -375 -230 -602q-209 -203 -567 -203q-227 0 -364 80z" />
<glyph unicode="&#x42e;" horiz-adv-x="1923" d="M41 0l260 1380h295l-102 -540h180q61 221 200 362q197 201 484 201q254 0 399 -164q137 -156 137 -412q0 -403 -235 -649q-190 -201 -485 -201q-242 0 -394 164q-139 152 -139 367q0 37 6 76h-203l-108 -584h-295zM936 563q0 -156 65 -244q72 -98 209 -98q160 0 273 201 q102 182 102 395q0 342 -260 342q-166 0 -283 -198q-106 -182 -106 -398z" />
<glyph unicode="&#x42f;" horiz-adv-x="1171" d="M-68 0q35 53 166 309q147 289 310 338v8q-90 25 -152 95q-76 84 -76 208q0 213 185 332q160 100 442 101q244 0 393 -35l-252 -1356h-295l105 551h-56q-164 0 -315 -301q-76 -166 -131 -250h-324zM485 944q0 -86 68 -135q61 -45 154 -45q43 0 92 4l69 385q-49 8 -108 8 q-119 0 -193 -53q-82 -57 -82 -164z" />
<glyph unicode="&#x430;" horiz-adv-x="1134" d="M53 326q0 281 174 475q199 223 545 223q178 0 330 -49l-101 -524q-47 -250 -40 -451h-271q4 92 12 199h-4q-129 -221 -342 -222q-135 0 -219 97q-84 96 -84 252zM360 381q0 -166 121 -166q76 0 140 82q76 92 106 264l43 232q-45 8 -78 8q-137 0 -237 -139 q-94 -131 -95 -281z" />
<glyph unicode="&#x431;" horiz-adv-x="1140" d="M92 467q0 461 256 727q203 211 625 246q137 12 198 33l-43 -246q-53 -16 -176 -29q-311 -33 -434 -149q-104 -98 -137 -236h8q135 188 340 188q164 0 260 -112q92 -109 92 -281q-2 -258 -159 -438q-166 -193 -422 -193q-190 0 -299 127q-109 129 -109 363zM383 412 q0 -92 37 -152q39 -66 115 -65q114 0 184 139q57 117 57 254q0 82 -33 137q-39 66 -112 66q-90 0 -160 -95q-88 -115 -88 -284z" />
<glyph unicode="&#x432;" horiz-adv-x="1091" d="M68 289q0 164 63 342q74 211 197 301q135 94 325 94q361 0 361 -248q0 -90 -78 -157q-63 -57 -156 -80v-4q86 -10 144 -62q66 -57 65 -147q0 -180 -182 -273q-145 -76 -346 -75q-393 0 -393 309zM362 303q0 -121 134 -121q86 0 141 39q53 39 53 98q0 109 -151 109 q-80 0 -164 -31q-12 -53 -13 -94zM410 586q166 25 235 57q86 41 86 102q0 80 -104 80q-149 1 -217 -239z" />
<glyph unicode="&#x433;" horiz-adv-x="862" d="M12 254q0 139 113 229q68 55 242 127q186 76 186 131q0 66 -109 66q-104 0 -231 -51l-29 196q137 72 322 72q334 -4 334 -276q0 -199 -340 -340q-184 -80 -185 -144q0 -70 103 -69q121 0 276 75l31 -207q-158 -84 -352 -83q-360 4 -361 274z" />
<glyph unicode="&#x434;" horiz-adv-x="1132" d="M59 393q0 236 144 416q154 195 383 195q193 0 264 -166h6q2 20 2 61q4 139 -88 217q-82 78 -287 92q-166 16 -196 23l-4 242q4 -2 299 -29q236 -25 352 -133q162 -137 162 -463q0 -336 -142 -580q-172 -291 -487 -291q-190 0 -299 111t-109 305zM365 387q0 -193 147 -192 q106 0 180 141q61 119 64 242q0 205 -148 204q-115 0 -184 -139q-61 -119 -59 -256z" />
<glyph unicode="&#x435;" horiz-adv-x="1026" d="M57 401q0 244 156 426q168 197 428 197q154 0 250 -80q98 -84 98 -221q0 -352 -651 -336q4 -63 33 -102q59 -78 192 -78q150 0 281 63l20 -213q-158 -80 -375 -80q-211 0 -323 115q-109 109 -109 309zM367 602q346 -2 346 123q0 84 -109 84q-94 0 -162 -70 q-57 -57 -75 -137z" />
<glyph unicode="&#x436;" horiz-adv-x="1486" d="M-72 0q-10 -16 127 268q125 272 310 291l-244 442h317l156 -413h29l77 413h279l-84 -413h31l321 413h328l-412 -440q121 -41 166 -295q43 -225 57 -266h-284q-12 33 -45 217q-37 203 -156 203h-35l-78 -420h-280l84 420h-27q-145 0 -229 -182q-115 -231 -117 -238h-291z " />
<glyph unicode="&#x437;" horiz-adv-x="944" d="M-39 82l76 197q139 -82 289 -82q80 0 135 26q63 33 63 88q0 111 -205 111h-118l28 190h117q209 0 209 105q0 96 -143 96q-125 0 -248 -63l-49 178q168 92 364 92q154 0 256 -51q131 -66 131 -207q0 -188 -256 -238l-2 -2q94 -16 156 -69q72 -66 72 -162q0 -164 -164 -246 q-129 -63 -314 -63q-242 0 -397 100z" />
<glyph unicode="&#x438;" horiz-adv-x="1146" d="M84 258q0 84 20 184l107 559h295l-103 -536q-14 -82 -14 -133q0 -115 100 -115q78 0 144 86q70 88 98 234l88 464h293l-127 -675q-39 -215 -53 -326h-260l18 164h-4q-145 -186 -344 -187q-258 0 -258 281z" />
<glyph unicode="&#x439;" horiz-adv-x="1146" d="M84 258q0 84 20 184l107 559h295l-103 -536q-14 -82 -14 -133q0 -115 100 -115q78 0 144 86q70 88 98 234l88 464h293l-127 -675q-39 -215 -53 -326h-260l18 164h-4q-145 -186 -344 -187q-258 0 -258 281zM463 1417h186q-16 -135 74 -135q80 0 113 135h188 q-55 -270 -319 -270q-262 0 -242 270z" />
<glyph unicode="&#x43a;" horiz-adv-x="1038" d="M27 0l190 1001h287l-78 -411h29l336 411h346l-439 -446q123 -51 168 -297q39 -195 66 -258h-291q-4 12 -57 238q-45 180 -164 180h-27l-80 -418h-286z" />
<glyph unicode="&#x43b;" horiz-adv-x="1116" d="M-59 217q94 10 145 62q90 82 135 313l78 412h788l-190 -1004h-293l146 776h-222l-39 -190q-70 -358 -219 -488q-117 -113 -311 -112z" />
<glyph unicode="&#x43c;" horiz-adv-x="1458" d="M2 0l264 1004h371l39 -392q6 -68 18 -235h4q37 84 131 270l187 357h375l-134 -1004h-272l62 401q20 147 55 334h-8q-31 -72 -150 -309l-211 -410h-225l-39 398l-27 323h-8q-55 -266 -74 -342l-98 -395h-260z" />
<glyph unicode="&#x43d;" horiz-adv-x="1140" d="M27 0l188 1001h295l-70 -368h305l70 368h295l-190 -1001h-295l77 406h-305l-75 -406h-295z" />
<glyph unicode="&#x43e;" horiz-adv-x="1144" d="M57 393q0 264 166 447q170 186 432 186q197 0 316 -121q111 -115 110 -293q0 -274 -170 -454q-168 -180 -428 -181q-192 0 -309 115t-117 301zM362 397q0 -195 162 -194q111 0 187 139q66 125 65 268q0 190 -158 191q-117 0 -192 -144q-63 -123 -64 -260z" />
<glyph unicode="&#x43f;" horiz-adv-x="1153" d="M25 0l127 676q20 100 55 325h260l-18 -165h4q137 188 350 188q258 0 258 -274q0 -70 -17 -168l-110 -582h-297l106 555q10 57 11 111q0 121 -101 120q-76 0 -145 -88q-76 -96 -105 -254l-84 -444h-294z" />
<glyph unicode="&#x440;" horiz-adv-x="1157" d="M-55 -406l194 1020q27 141 58 396h264l-19 -154h4q127 168 322 168q156 0 244 -113q80 -104 80 -268q0 -270 -160 -463q-168 -203 -422 -203q-115 0 -184 41h-7l-79 -424h-295zM367 248q53 -47 135 -47q115 0 198 137q82 129 82 283q0 164 -129 163q-86 0 -153 -86 q-72 -88 -97 -233z" />
<glyph unicode="&#x441;" horiz-adv-x="886" d="M55 389q0 270 185 451q186 184 469 184q115 0 204 -33l-73 -227q-59 25 -135 24q-152 0 -248 -112q-92 -106 -92 -254q0 -98 57 -156q53 -51 139 -51q96 0 199 41l2 -223q-111 -53 -285 -53q-188 0 -303 108q-119 111 -119 301z" />
<glyph unicode="&#x442;" horiz-adv-x="1701" d="M27 0l125 676q29 166 51 325h252l-19 -161h4q133 186 344 186q111 0 177 -61q55 -53 61 -129q133 190 346 190q115 0 180 -72q63 -72 64 -198q0 -70 -17 -172l-108 -584h-287l100 549q14 68 15 121q0 119 -98 118q-76 0 -140 -90q-68 -94 -96 -243l-84 -455h-285l105 551 q12 82 12 115q0 123 -94 122q-76 0 -146 -94q-70 -96 -96 -243l-82 -451h-284z" />
<glyph unicode="&#x443;" horiz-adv-x="1017" d="M-51 -209q100 31 170 78q104 72 164 176q10 18 4 47l-199 909h311l97 -677h4l88 235l178 442h311q-383 -791 -354 -735q-197 -377 -387 -557q-154 -145 -322 -172z" />
<glyph unicode="&#x444;" horiz-adv-x="1505" d="M53 346q0 260 133 463q143 215 353 215q113 0 155 -96h4l101 526h264l-107 -532h7q90 102 217 102q133 0 204 -111q63 -100 64 -260q0 -266 -131 -465q-137 -211 -344 -211q-125 0 -172 93h-4l-84 -476h-273l92 480h-4q-80 -96 -217 -97q-115 0 -184 93q-74 100 -74 276z M348 379q0 -164 103 -164q104 0 137 141l55 273q6 33 10 90q-4 80 -78 80q-93 -1 -163 -148q-63 -133 -64 -272zM858 346q-10 -57 8 -80q20 -61 92 -53q80 10 140 145q57 127 57 263q0 166 -98 165q-66 1 -113 -73q-25 -53 -45 -146l-20 -108q-14 -72 -21 -113z" />
<glyph unicode="&#x445;" horiz-adv-x="1019" d="M-98 0l434 518l-236 483h324l123 -317h6l106 160l111 157h338l-422 -487l234 -514h-324l-64 160q-31 78 -63 182h-6l-43 -76q-31 -51 -58 -92l-120 -174h-340z" />
<glyph unicode="&#x446;" horiz-adv-x="1179" d="M84 258q0 84 20 184l107 559h295l-103 -536q-14 -82 -14 -133q0 -115 100 -115q78 0 144 86q70 88 98 234l86 464h295l-108 -577q-20 -98 -21 -143q0 -121 141 -123l-153 -477h-211l86 319q-55 16 -88 66q-25 35 -33 106h-4q-147 -199 -363 -195q-274 0 -274 281z" />
<glyph unicode="&#x447;" horiz-adv-x="1101" d="M111 584q0 63 20 159l51 258h295l-47 -231q-16 -92 -16 -119q0 -111 129 -110q94 0 157 53l78 407h293l-192 -1001h-293l78 381h-5q-100 -55 -237 -55q-311 0 -311 258z" />
<glyph unicode="&#x448;" horiz-adv-x="1691" d="M84 248q0 70 16 172l109 581h287l-101 -546q-14 -68 -14 -121q0 -119 96 -119q74 0 137 90q66 92 95 244l84 452h284l-104 -550q-12 -78 -12 -113q0 -123 92 -123q74 0 141 94q70 96 96 242l82 450h287l-125 -671q-20 -113 -31 -330h-264q2 68 10 166h-4 q-131 -188 -342 -189q-109 0 -172 62q-57 53 -63 129q-133 -190 -344 -191q-113 0 -177 72q-63 72 -63 199z" />
<glyph unicode="&#x449;" horiz-adv-x="1728" d="M84 248q0 70 16 172l109 581h287l-101 -546q-14 -68 -14 -121q0 -119 96 -119q74 0 137 90q63 92 93 244l86 452h284l-104 -550q-12 -78 -12 -113q0 -123 92 -123q74 0 143 94q70 96 96 242l82 450h285l-103 -561q-23 -143 -22 -164q0 -117 141 -118l-153 -477h-211 l84 319q-47 10 -84 66q-37 51 -41 106h-6q-137 -195 -361 -195q-109 0 -172 62q-57 53 -63 129q-133 -190 -342 -191q-115 0 -179 72q-63 72 -63 199z" />
<glyph unicode="&#x44a;" horiz-adv-x="1185" d="M70 774l43 227h661q-162 -238 -223 -387h2q102 92 266 93q125 0 203 -72q82 -76 82 -205q0 -174 -139 -303q-156 -145 -402 -145q-365 0 -364 288q0 225 198 504h-327zM492 297q0 -106 110 -107q87 1 148 52q66 55 65 137q0 117 -121 117q-133 0 -184 -121 q-18 -37 -18 -78z" />
<glyph unicode="&#x44b;" horiz-adv-x="1521" d="M72 223q0 70 28 203l127 575h291l-98 -387h4q104 92 262 93q123 0 199 -72q76 -74 76 -203q0 -178 -138 -307q-154 -143 -411 -143q-340 0 -340 241zM365 281q0 -90 108 -91q76 1 135 52q63 55 64 137q0 117 -115 117q-61 0 -117 -47q-49 -41 -63 -93q-12 -37 -12 -75z M991 0l193 1001h309l-193 -1001h-309z" />
<glyph unicode="&#x44c;" horiz-adv-x="1058" d="M72 233q0 70 30 193l127 575h289l-98 -385l2 -2q104 92 266 93q125 0 205 -72q84 -76 84 -205q0 -184 -141 -309q-154 -139 -418 -139q-346 0 -346 251zM365 285q0 -94 108 -95q82 1 145 52q70 53 70 135q0 119 -119 119q-141 0 -190 -134q-14 -37 -14 -77z" />
<glyph unicode="&#x44d;" horiz-adv-x="964" d="M-29 49l70 205q102 -49 238 -49q238 0 294 201h-391l33 188h385v18q0 82 -57 133q-61 55 -170 56q-117 0 -209 -39l-47 205q143 57 297 57q229 0 356 -129q121 -127 121 -344q0 -258 -160 -412q-166 -160 -457 -159q-188 6 -303 69z" />
<glyph unicode="&#x44e;" horiz-adv-x="1562" d="M27 0l188 1001h297l-72 -376h133q59 180 197 288q141 113 326 113q184 0 297 -123q109 -119 108 -303q0 -266 -160 -444q-162 -178 -407 -179q-180 0 -289 111q-104 104 -104 274l2 52h-144l-77 -414h-295zM825 397q0 -195 146 -194q98 0 168 139q63 125 63 266 q0 193 -139 193q-104 0 -176 -146q-61 -125 -62 -258z" />
<glyph unicode="&#x44f;" horiz-adv-x="1087" d="M-57 0q10 14 145 262q96 174 242 203v6q-76 14 -135 70q-68 63 -68 151q0 330 569 330q186 0 363 -23l-191 -999h-288l71 379h-59q-135 0 -221 -168q-80 -158 -113 -211h-315zM428 688q0 -121 180 -121h80l47 248q-61 8 -106 8q-201 0 -201 -135z" />
<glyph unicode="&#x451;" horiz-adv-x="1026" d="M57 401q0 244 156 426q168 197 428 197q154 0 250 -80q98 -84 98 -221q0 -352 -651 -336q4 -63 33 -102q59 -78 192 -78q150 0 281 63l20 -213q-158 -80 -375 -80q-211 0 -323 115q-109 109 -109 309zM322 1270q0 68 45 110q45 43 110 43q59 0 96 -39t37 -96 q0 -70 -45 -112q-43 -41 -108 -41q-56 -1 -95 36q-41 37 -40 99zM367 602q346 -2 346 123q0 84 -109 84q-94 0 -162 -70q-57 -57 -75 -137zM743 1270q0 68 45 110q45 43 111 43q59 0 96 -39t37 -96q0 -70 -45 -112q-43 -41 -108 -41q-58 -1 -95 36q-41 37 -41 99z" />
<glyph unicode="&#x452;" horiz-adv-x="1153" d="M29 0l213 1126h-115l41 195h111l24 133h293l-25 -133h461l-37 -195h-460l-46 -239h5q117 123 272 123q158 0 240 -125q74 -111 73 -291q0 -434 -245 -690q-152 -178 -385 -201l-46 242q106 18 197 112q172 164 172 484q0 225 -137 225q-74 0 -131 -72q-61 -72 -84 -194 l-96 -500h-295z" />
<glyph unicode="&#x453;" horiz-adv-x="862" d="M12 254q0 139 113 229q68 55 242 127q186 76 186 131q0 66 -109 66q-104 0 -231 -51l-29 196q137 72 322 72q334 -4 334 -276q0 -199 -340 -340q-184 -80 -185 -144q0 -70 103 -69q121 0 276 75l31 -207q-158 -84 -352 -83q-360 4 -361 274zM428 1122l193 312h290 l-266 -312h-217z" />
<glyph unicode="&#x454;" horiz-adv-x="907" d="M61 426q0 256 162 424q180 176 461 176q156 0 250 -51l-70 -209q-70 37 -176 37q-229 0 -297 -207h389l-32 -188h-386v-23q23 -178 232 -178q106 0 199 39l14 -213q-113 -55 -295 -56q-201 0 -324 119q-127 123 -127 330z" />
<glyph unicode="&#x455;" horiz-adv-x="851" d="M-8 57l71 207q139 -70 261 -69q127 0 127 90q0 68 -125 129q-211 106 -211 266q0 156 123 252q123 94 317 94q164 0 258 -51l-72 -209q-96 43 -198 43q-131 0 -131 -88q0 -57 120 -113q225 -113 226 -276q0 -168 -131 -264q-125 -92 -330 -88q-203 4 -305 77z" />
<glyph unicode="&#x456;" horiz-adv-x="546" d="M27 0l190 1001h295l-190 -1001h-295zM250 1286q0 78 53 129q53 49 127 49q70 0 113 -41q45 -43 45 -112q0 -82 -56 -131q-51 -47 -129 -47h-4q-66 0 -106 43q-43 43 -43 110z" />
<glyph unicode="&#x457;" horiz-adv-x="542" d="M27 0l188 1001h297l-193 -1001h-292zM59 1270q0 68 45 110q45 43 111 43q59 0 96 -39t37 -96q0 -70 -45 -112q-43 -41 -108 -41q-56 -1 -95 36q-41 37 -41 99zM481 1270q0 68 45 110q45 43 111 43q59 0 96 -39t37 -96q0 -70 -45 -112q-43 -41 -109 -41q-57 -1 -94 36 q-41 37 -41 99z" />
<glyph unicode="&#x458;" horiz-adv-x="563" d="M-195 -412l33 222q41 -4 66 -5q119 0 157 215l187 981h293l-181 -968q-47 -248 -141 -355q-94 -106 -272 -106q-82 0 -142 16zM270 1286q0 76 54 129q53 49 127 49q70 0 112 -41q45 -43 45 -112q0 -82 -55 -131q-53 -47 -133 -47q-66 0 -107 43q-43 43 -43 110z" />
<glyph unicode="&#x459;" horiz-adv-x="1607" d="M-59 219q74 6 122 60q88 80 136 311l77 414h773l-80 -386h4q104 88 264 89q125 0 205 -72q84 -74 84 -203q0 -180 -137 -307q-158 -143 -428 -143q-340 0 -340 249q0 66 26 195l74 350h-217l-37 -192q-72 -358 -219 -488q-115 -111 -289 -110zM913 289q0 -98 111 -99 q80 1 143 52q70 53 70 135q0 119 -119 119q-139 0 -190 -138q-14 -35 -15 -69z" />
<glyph unicode="&#x45a;" horiz-adv-x="1624" d="M27 0l188 1001h295l-68 -358h269l71 358h287l-80 -385h2q102 90 260 91q125 0 207 -72q84 -76 84 -205q0 -180 -139 -305q-158 -143 -426 -143q-338 0 -338 235q0 45 12 123l17 80h-269l-77 -420h-295zM932 283q0 -92 108 -93q87 1 148 52q66 51 65 135q0 119 -118 119 q-68 0 -125 -47q-47 -39 -64 -91q-14 -43 -14 -75z" />
<glyph unicode="&#x45b;" horiz-adv-x="1155" d="M29 0l213 1128h-140l39 189h138l26 137h295l-27 -137h428l-38 -189h-426l-50 -256h5q137 152 319 152q117 0 184 -70q68 -72 68 -200q0 -80 -19 -181l-108 -573h-295l104 549q12 59 13 123q0 115 -101 114q-80 0 -147 -88q-72 -92 -98 -239l-88 -459h-295z" />
<glyph unicode="&#x45c;" horiz-adv-x="1038" d="M27 0l190 1001h287l-78 -411h29l336 411h346l-439 -446q123 -51 168 -297q39 -195 66 -258h-291q-4 12 -57 238q-45 180 -164 180h-27l-80 -418h-286zM500 1122l190 312h291l-266 -312h-215z" />
<glyph unicode="&#x45e;" horiz-adv-x="1017" d="M-51 -209q100 31 170 78q104 72 164 176q10 18 4 47l-199 909h311l97 -677h4l88 235l178 442h311q-383 -791 -354 -735q-197 -377 -387 -557q-154 -145 -322 -172zM371 1417h186q-16 -135 74 -135q82 0 112 135h189q-55 -270 -320 -270q-262 0 -241 270z" />
<glyph unicode="&#x45f;" horiz-adv-x="1146" d="M84 258q0 84 20 184l107 559h295l-103 -536q-14 -82 -14 -133q0 -115 100 -115q78 0 144 86q70 88 98 234l88 464h293l-127 -675q-39 -215 -53 -326h-260l18 162l-4 2q-145 -186 -344 -187q-258 0 -258 281zM272 -428l74 332l260 18l-96 -317z" />
<glyph unicode="&#x490;" horiz-adv-x="915" d="M39 0l260 1380h514l92 271h225l-131 -529h-452l-213 -1122h-295z" />
<glyph unicode="&#x491;" horiz-adv-x="827" d="M27 0l190 1001h418l84 234h217l-109 -465h-360l-145 -770h-295z" />
<glyph unicode="&#x4d9;" horiz-adv-x="1017" d="M25 281q0 352 649 335q0 59 -29 101q-57 80 -192 80q-143 0 -275 -66l-33 209q166 86 377 86t326 -115q109 -113 108 -313q0 -244 -153 -424q-166 -195 -426 -194q-158 0 -254 79q-98 82 -98 222zM301 281q0 -86 111 -86q93 -1 159 69q57 57 74 137q-344 4 -344 -120z " />
<glyph unicode="&#x2000;" horiz-adv-x="868" />
<glyph unicode="&#x2001;" horiz-adv-x="1737" />
<glyph unicode="&#x2002;" horiz-adv-x="868" />
<glyph unicode="&#x2003;" horiz-adv-x="1737" />
<glyph unicode="&#x2004;" horiz-adv-x="579" />
<glyph unicode="&#x2005;" horiz-adv-x="434" />
<glyph unicode="&#x2006;" horiz-adv-x="289" />
<glyph unicode="&#x2007;" horiz-adv-x="289" />
<glyph unicode="&#x2008;" horiz-adv-x="217" />
<glyph unicode="&#x2009;" horiz-adv-x="347" />
<glyph unicode="&#x200a;" horiz-adv-x="96" />
<glyph unicode="&#x2010;" horiz-adv-x="659" d="M49 434l41 207h531l-41 -207h-531z" />
<glyph unicode="&#x2011;" horiz-adv-x="659" d="M49 434l41 207h531l-41 -207h-531z" />
<glyph unicode="&#x2012;" horiz-adv-x="659" d="M49 434l41 207h531l-41 -207h-531z" />
<glyph unicode="&#x2013;" horiz-adv-x="1024" d="M45 424l37 192h901l-37 -192h-901z" />
<glyph unicode="&#x2014;" horiz-adv-x="2048" d="M45 424l37 192h1925l-37 -192h-1925z" />
<glyph unicode="&#x2018;" horiz-adv-x="522" d="M129 846q145 315 322 555l194 16q-143 -285 -223 -553z" />
<glyph unicode="&#x2019;" horiz-adv-x="522" d="M121 846q135 268 223 553l293 18q-147 -324 -322 -555z" />
<glyph unicode="&#x201a;" horiz-adv-x="522" d="M-111 -236q160 324 232 574l307 20q-145 -322 -334 -575z" />
<glyph unicode="&#x201c;" horiz-adv-x="917" d="M127 846q145 315 322 555l194 16q-143 -285 -223 -553zM528 846q141 315 322 555l194 16q-143 -285 -223 -553z" />
<glyph unicode="&#x201d;" horiz-adv-x="917" d="M119 846q143 285 223 553l293 18q-154 -334 -322 -555zM520 846q143 285 223 553l293 18q-147 -324 -321 -555z" />
<glyph unicode="&#x201e;" horiz-adv-x="917" d="M-127 -236q156 307 231 574l308 20q-150 -332 -334 -575zM307 -236q160 324 232 574l307 20q-145 -322 -334 -575z" />
<glyph unicode="&#x2026;" horiz-adv-x="2048" d="M90 150q0 86 55 147q57 61 144 61q76 0 123 -49t47 -127q0 -90 -58 -145q-57 -57 -147 -57q-74 0 -119 49q-45 47 -45 121zM774 150q0 86 55 147q57 61 144 61q76 0 123 -49t47 -127q0 -90 -58 -145q-57 -57 -147 -57q-74 0 -119 49q-45 47 -45 121zM1458 150 q0 86 55 147q57 61 144 61q76 0 123 -49t47 -127q0 -90 -58 -145q-57 -57 -147 -57q-74 0 -119 49q-45 47 -45 121z" />
<glyph unicode="&#x202f;" horiz-adv-x="347" />
<glyph unicode="&#x2039;" horiz-adv-x="548" d="M45 516l277 391h225l-295 -395l197 -385h-205z" />
<glyph unicode="&#x203a;" horiz-adv-x="546" d="M10 127l295 397l-196 383h204l199 -391l-276 -389h-226z" />
<glyph unicode="&#x205f;" horiz-adv-x="434" />
<glyph unicode="&#x20ac;" d="M18 479l31 146h129q4 39 17 96h-127l28 145h142q78 213 266 348q193 139 422 140q186 0 301 -62l-88 -227q-86 43 -226 43q-119 0 -221 -72q-98 -68 -143 -170h475l-33 -145h-497q-12 -61 -17 -96h496l-31 -146h-467q35 -256 281 -256q143 0 241 47l29 -225 q-131 -68 -324 -68q-240 0 -383 138q-139 133 -149 364h-152z" />
<glyph unicode="&#x2122;" horiz-adv-x="1429" d="M213 1243v137h489v-137h-161v-422h-170v422h-158zM741 821l35 559h262l37 -137q14 -57 33 -180h2q23 109 41 180l41 137h244l30 -559h-163l-11 244v100q0 76 -2 119h-8l-49 -219l-57 -234h-162l-49 238l-17 100q-12 76 -20 115h-8l-7 -217l-12 -246h-160z" />
<glyph unicode="&#x25fc;" horiz-adv-x="1003" d="M0 0v1004h1004v-1004h-1004z" />
</font>
</defs>
</svg>
