<?xml version="1.0" standalone="no"?>
<!DOCTYPE svg PUBLIC "-//W3C//DTD SVG 1.1//EN" "http://www.w3.org/Graphics/SVG/1.1/DTD/svg11.dtd" >
<svg xmlns="http://www.w3.org/2000/svg">
<metadata></metadata>
<defs>
<font id="myriad_prosemibold_italic" horiz-adv-x="1062" >
<font-face units-per-em="2048" ascent="1536" descent="-512" />
<missing-glyph horiz-adv-x="374" />
<glyph horiz-adv-x="0" />
<glyph horiz-adv-x="682" />
<glyph unicode=" "  horiz-adv-x="374" />
<glyph unicode="&#x09;" horiz-adv-x="374" />
<glyph unicode="&#xa0;" horiz-adv-x="374" />
<glyph unicode="!" horiz-adv-x="520" d="M37 123q0 72 47 123q49 51 121 51q63 0 102 -43q41 -41 41 -107q0 -72 -47 -120q-49 -49 -123 -50q-61 0 -102 43q-39 41 -39 103zM154 428l145 952h262l-221 -952h-186z" />
<glyph unicode="&#x22;" horiz-adv-x="716" d="M178 881l64 536h229l-141 -536h-152zM532 881l62 536h231l-141 -536h-152z" />
<glyph unicode="#" d="M55 383l27 154h192l84 266h-176l25 153h199l118 375h150l-117 -375h182l119 375h152l-119 -375h168l-27 -153h-188l-82 -266h174l-27 -154h-198l-119 -383h-154l119 383h-180l-119 -383h-154l119 383h-168zM428 537h180l82 266h-180z" />
<glyph unicode="$" d="M53 123l76 182q133 -96 303 -96q102 0 168 49q68 51 68 131q0 117 -172 203q-283 145 -283 340q0 147 109 252q109 106 280 123l39 190h162l-37 -188q156 -8 246 -74l-78 -176q-123 70 -258 69q-94 0 -152 -47q-55 -45 -55 -114q0 -96 203 -199q254 -131 254 -340 q0 -172 -121 -283q-113 -102 -291 -120l-39 -203h-162l37 201q-172 6 -297 100z" />
<glyph unicode="%" horiz-adv-x="1691" d="M133 842q0 205 113 354q119 158 301 158q127 0 201 -86q70 -80 69 -207q0 -221 -115 -373q-117 -154 -290 -153q-127 0 -203 81q-76 84 -76 226zM299 -25l995 1379h150l-993 -1379h-152zM319 836q0 -160 113 -160q88 0 148 137q51 117 51 246q0 154 -113 153 q-86 0 -145 -131q-53 -117 -54 -245zM934 291q0 205 113 354q119 158 301 158q126 0 200 -86q70 -80 70 -207q0 -221 -115 -373q-117 -154 -291 -153q-127 0 -202 82q-76 84 -76 225zM1120 285q0 -160 113 -160q88 0 147 137q51 117 52 246q0 154 -113 154q-86 -1 -145 -132 q-53 -117 -54 -245z" />
<glyph unicode="&#x26;" horiz-adv-x="1292" d="M31 334q0 274 338 434l2 6q-76 131 -76 242q0 164 113 274q117 113 290 113q145 0 234 -82q84 -80 84 -209q0 -229 -346 -391v-6q86 -139 213 -318q117 141 196 379h221q-123 -350 -309 -530q82 -123 189 -246h-283q16 -18 -84 109q-158 -131 -379 -132q-184 0 -295 101 q-109 98 -108 256zM274 373q0 -92 58 -152q61 -61 170 -61q121 0 215 90q-178 250 -264 387q-178 -119 -179 -264zM512 1040q0 -96 61 -192q227 106 228 260q0 135 -125 135q-70 0 -117 -57t-47 -146z" />
<glyph unicode="'" horiz-adv-x="376" d="M186 883l62 534h231l-141 -534h-152z" />
<glyph unicode="(" horiz-adv-x="616" d="M131 317q0 643 420 1098h184q-408 -492 -407 -1091q0 -301 96 -564h-172q-121 254 -121 557z" />
<glyph unicode=")" horiz-adv-x="616" d="M-82 -240q408 496 408 1096q0 303 -97 559h174q119 -248 119 -555q0 -639 -418 -1100h-186z" />
<glyph unicode="*" horiz-adv-x="890" d="M141 930l33 178l295 -55v4l-174 256l166 90l88 -301h4l149 301l148 -88l-240 -258l2 -4l326 55l-35 -178l-303 49l-2 -6l182 -252l-166 -90l-88 305l-6 -2l-155 -305l-140 94l238 252l-2 6z" />
<glyph unicode="+" horiz-adv-x="1220" d="M100 467v160h435v463h165v-463h435v-160h-435v-467h-165v467h-435z" />
<glyph unicode="," horiz-adv-x="487" d="M-104 -248q150 297 219 541l266 20q-137 -317 -309 -544z" />
<glyph unicode="-" horiz-adv-x="645" d="M61 459l33 174h512l-33 -174h-512z" />
<glyph unicode="." horiz-adv-x="487" d="M39 127q0 74 47 125q49 51 121 51q63 0 104 -43t41 -108q0 -74 -49 -123q-47 -49 -123 -49q-61 0 -102 43q-39 41 -39 104z" />
<glyph unicode="/" horiz-adv-x="667" d="M-94 -82l762 1485h178l-764 -1485h-176z" />
<glyph unicode="0" d="M84 446q0 348 158 615q174 293 446 293q189 0 283 -135q78 -115 78 -304q0 -356 -152 -628q-172 -309 -451 -310q-186 0 -278 138q-84 121 -84 331zM319 436q0 -268 156 -268q150 0 252 289q84 238 84 452q0 254 -149 254q-146 0 -250 -268q-92 -231 -93 -459z" />
<glyph unicode="1" d="M317 1174l340 157h197l-252 -1331h-229l209 1102h-4l-246 -115z" />
<glyph unicode="2" d="M-2 0l29 156l247 194q260 219 361 336q133 156 133 287q0 76 -47 125q-51 55 -146 55q-150 0 -278 -88l-53 172q174 117 387 117q186 0 289 -103q94 -94 94 -243q0 -188 -152 -377q-106 -133 -354 -332l-125 -92l2 -4h512l-37 -203h-862z" />
<glyph unicode="3" d="M25 66l75 188q123 -74 277 -74q137 0 219 72q74 68 74 164q0 203 -279 202h-59l37 185h55q115 0 205 51q106 61 106 162q0 137 -174 137q-158 0 -264 -70l-41 181q156 90 350 90q168 0 275 -82q106 -82 106 -219q0 -123 -88 -215q-80 -86 -207 -121v-4q104 -23 166 -105 q61 -80 62 -190q0 -195 -166 -322q-160 -119 -385 -119q-240 0 -344 89z" />
<glyph unicode="4" d="M23 342l30 160l668 829h283l-152 -803h166l-35 -186h-166l-65 -342h-224l64 342h-569zM299 528h328l73 359q2 14 58 237h-8l-162 -241l-289 -351v-4z" />
<glyph unicode="5" d="M29 53l65 189q106 -63 262 -64q129 0 226 76q102 80 102 199q0 227 -326 227q-51 0 -157 -8l188 659h660l-41 -205h-463l-82 -266q23 4 61 4q150 0 256 -73q152 -92 152 -295q0 -238 -174 -381q-164 -137 -410 -138q-219 0 -319 76z" />
<glyph unicode="6" d="M70 432q0 455 331 721q211 174 496 195q61 8 113 4l-35 -199q-47 2 -117 -6q-365 -47 -496 -391h5q125 131 299 131q150 0 239 -105q90 -102 90 -264q0 -213 -143 -373q-150 -168 -369 -168q-201 0 -311 132q-102 121 -102 323zM303 401q0 -104 49 -170q53 -68 144 -67 q110 -1 186 108q68 98 68 224q0 209 -187 209q-143 0 -231 -150q-18 -33 -23 -66q-6 -43 -6 -88z" />
<glyph unicode="7" d="M70 0q127 190 741 1122v4h-592l39 205h856l-31 -162q-313 -492 -749 -1169h-264z" />
<glyph unicode="8" d="M41 315q0 268 299 387v7q-137 102 -137 254q0 170 139 282q133 109 324 109q160 0 262 -82q106 -86 106 -232q0 -217 -250 -329v-6q188 -102 189 -306q0 -195 -160 -315q-145 -106 -346 -107q-197 0 -313 97q-113 92 -113 241zM291 344q0 -82 51 -133q53 -57 150 -57 q95 0 161 61q70 63 70 164q0 162 -201 233q-96 -25 -160 -90q-72 -76 -71 -178zM432 979q0 -135 174 -195q197 66 197 230t-168 164q-84 -1 -143 -60t-60 -139z" />
<glyph unicode="9" d="M106 -18l29 198q41 -2 125 4q147 16 272 105q158 115 228 295h-4q-106 -117 -277 -117q-156 0 -250 102q-90 98 -90 250q0 213 152 373q154 162 368 162q197 0 302 -129q96 -119 96 -316q0 -225 -107 -440q-94 -190 -233 -305q-195 -154 -459 -178q-86 -8 -152 -4z M383 848q0 -90 47 -146q47 -55 129 -55q137 0 217 117q20 29 29 61q12 47 12 121q0 221 -182 221q-102 0 -178 -98q-74 -96 -74 -221z" />
<glyph unicode=":" horiz-adv-x="487" d="M39 125q0 72 47 123q49 51 121 51q63 0 102 -43q41 -41 41 -106q0 -74 -47 -123q-49 -49 -123 -50q-61 0 -102 43q-39 41 -39 105zM170 815q0 72 47 123q49 51 121 51q63 0 102 -43q41 -41 41 -106q0 -74 -47 -123q-49 -49 -123 -49q-61 0 -102 43q-39 41 -39 104z" />
<glyph unicode=";" horiz-adv-x="487" d="M-104 -248q150 297 219 541l264 20q-143 -328 -309 -544zM180 815q0 72 47 123q49 51 121 51q63 0 103 -43q41 -41 41 -106q0 -74 -48 -123q-49 -49 -122 -49q-62 0 -103 43q-39 41 -39 104z" />
<glyph unicode="&#x3c;" horiz-adv-x="1220" d="M131 473v145l948 472v-183l-749 -360v-4l749 -361v-182z" />
<glyph unicode="=" horiz-adv-x="1220" d="M100 262v160h1037v-160h-1037zM100 678v160h1037v-160h-1037z" />
<glyph unicode="&#x3e;" horiz-adv-x="1220" d="M170 0v182l762 361v4l-762 362v181l950 -467v-156z" />
<glyph unicode="?" horiz-adv-x="845" d="M172 123q0 72 47 123t119 51q63 0 104 -43q41 -41 41 -107q0 -72 -49 -120q-47 -49 -123 -50q-61 0 -100 43q-39 41 -39 103zM246 1323q137 82 315 82q145 0 234 -78q84 -76 84 -190q0 -168 -226 -394q-127 -129 -149 -266l-10 -53h-232l6 53q23 174 193 354 q170 186 170 261q0 117 -135 118q-121 0 -215 -57z" />
<glyph unicode="@" horiz-adv-x="1507" d="M76 430q0 326 207 549q215 236 551 235q268 0 438 -167q170 -166 170 -426q0 -219 -111 -357q-106 -131 -266 -131t-166 168h-6q-102 -168 -277 -168q-96 0 -159 70q-66 74 -66 194q0 195 133 334q139 145 350 146q141 0 232 -48l-64 -374q-37 -199 56 -201q80 -4 141 88 q68 102 68 270q0 217 -127 351q-135 139 -367 139q-250 0 -420 -176q-180 -186 -180 -480q0 -254 147 -401q143 -145 383 -145q170 0 297 69l35 -106q-154 -78 -364 -78q-268 0 -449 172q-186 182 -186 473zM565 414q0 -139 117 -140q70 0 133 76q59 72 76 166l35 211 q-37 12 -80 12q-117 0 -199 -96t-82 -229z" />
<glyph unicode="A" horiz-adv-x="1220" d="M-57 0l692 1380h299l174 -1380h-250l-39 393h-434l-188 -393h-254zM461 578h344l-39 344l-21 262h-4l-55 -131q-35 -84 -57 -131z" />
<glyph unicode="B" horiz-adv-x="1132" d="M53 12l254 1348q154 31 332 31q215 0 332 -82q133 -82 133 -236q0 -125 -86 -219q-78 -84 -201 -117v-6q221 -68 221 -303q0 -203 -178 -326q-159 -112 -481 -112h-6q-199 0 -320 22zM319 184q55 -6 125 -6q147 0 238 60q104 70 104 198q0 203 -270 203h-113zM440 815 h111q137 0 221 59q86 61 86 166q0 164 -219 164q-86 0 -127 -10z" />
<glyph unicode="C" horiz-adv-x="1169" d="M100 557q0 442 324 680q217 164 514 164q205 0 301 -62l-70 -192q-90 49 -260 49q-209 0 -350 -129q-201 -174 -201 -479q0 -184 95 -291q100 -115 297 -115q164 0 276 51l23 -192q-135 -63 -361 -64q-270 0 -428 156q-160 156 -160 424z" />
<glyph unicode="D" horiz-adv-x="1363" d="M53 12l256 1350q176 29 365 29q338 0 506 -164q158 -143 157 -408q0 -410 -280 -641q-229 -188 -645 -188q-215 0 -359 22zM328 193q63 -8 151 -9q283 0 436 172q164 174 164 459q0 383 -409 383q-94 0 -154 -12z" />
<glyph unicode="E" horiz-adv-x="1015" d="M49 0l262 1380h766l-39 -202h-526l-70 -363h498l-39 -201h-495l-78 -411h557l-39 -203h-797z" />
<glyph unicode="F" horiz-adv-x="1003" d="M51 0l262 1380h760l-39 -202h-520l-76 -390h484l-39 -200h-482l-110 -588h-240z" />
<glyph unicode="G" horiz-adv-x="1333" d="M100 563q0 387 277 629q238 203 590 203q225 0 348 -62l-74 -200q-123 57 -293 57q-225 0 -385 -137q-203 -176 -203 -473q0 -391 394 -392q106 0 178 31l65 346h-243l37 193h477l-133 -697q-202 -75 -414 -75h-6q-291 0 -457 159q-158 156 -158 418z" />
<glyph unicode="H" horiz-adv-x="1327" d="M51 0l262 1380h238l-107 -559h562l106 559h240l-262 -1380h-240l117 610h-561l-117 -610h-238z" />
<glyph unicode="I" horiz-adv-x="524" d="M45 0l262 1380h238l-262 -1380h-238z" />
<glyph unicode="J" horiz-adv-x="784" d="M-68 12l48 203q74 -27 170 -27q209 0 262 291l172 901h237l-176 -927q-47 -252 -164 -365q-117 -111 -331 -111q-143 0 -218 35z" />
<glyph unicode="K" horiz-adv-x="1138" d="M49 0l262 1380h236l-121 -641h6l131 158l428 483h299l-569 -596l336 -784h-260l-262 635l-156 -146l-94 -489h-236z" />
<glyph unicode="L" horiz-adv-x="956" d="M51 0l262 1380h238l-221 -1171h540l-39 -209h-780z" />
<glyph unicode="M" horiz-adv-x="1642" d="M16 0l353 1380h313l74 -645q25 -301 26 -397h9q72 188 174 395l333 647h320l-182 -1380h-232l90 649q61 387 86 506h-6q-133 -301 -229 -485l-338 -654h-186l-72 643q-23 213 -37 496h-4l-111 -506l-159 -649h-222z" />
<glyph unicode="N" horiz-adv-x="1333" d="M49 0l262 1380h275l241 -641q72 -201 123 -432h6q8 180 62 467l115 606h223l-262 -1380h-244l-248 653q-90 258 -131 445l-6 -2q-18 -176 -82 -506l-111 -590h-223z" />
<glyph unicode="O" horiz-adv-x="1409" d="M98 547q0 414 260 663q197 193 484 193q264 0 409 -168q133 -154 133 -404q0 -414 -249 -657q-201 -197 -492 -197q-258 0 -407 170q-137 156 -138 400zM352 559q0 -170 76 -268q84 -113 250 -113q152 0 268 117q184 188 184 528q0 379 -317 379q-153 0 -272 -119 q-188 -188 -189 -524z" />
<glyph unicode="P" horiz-adv-x="1095" d="M49 0l258 1358q135 33 332 33q231 0 354 -99q127 -98 127 -274q0 -236 -176 -375q-164 -131 -432 -131q-37 0 -129 10l-100 -522h-234zM420 719q59 -12 125 -12q147 0 243 86q92 82 93 206q0 201 -240 201q-90 0 -133 -12z" />
<glyph unicode="Q" horiz-adv-x="1409" d="M98 551q0 395 246 647q201 205 498 205q266 0 411 -174q129 -154 129 -398q0 -401 -235 -641q-100 -100 -229 -145l-3 -6q203 -45 338 -70l-84 -190q-309 82 -501 170q-78 33 -97 33q-205 12 -335 161q-137 156 -138 408zM350 553q0 -166 76 -264q84 -113 246 -113 q156 0 270 115q188 188 188 538q0 154 -63 248q-80 125 -254 125q-151 0 -272 -117q-190 -195 -191 -532z" />
<glyph unicode="R" horiz-adv-x="1138" d="M51 0l260 1358q141 33 338 33q229 0 348 -88q129 -94 129 -252q0 -147 -94 -254q-86 -98 -225 -142v-6q121 -47 141 -262q33 -348 47 -387h-245q-14 59 -35 330q-16 239 -199 239h-2h-117l-108 -569h-238zM432 750h135q137 0 226 77q86 76 86 189q0 186 -236 186 q-86 0 -129 -12z" />
<glyph unicode="S" horiz-adv-x="1003" d="M10 76l82 196q133 -88 311 -88q106 0 177 54q78 55 77 151q0 119 -192 223q-281 152 -281 361q0 193 150 313q143 115 358 115q195 0 307 -70l-77 -196q-113 61 -240 61h-8q-111 0 -178 -55q-61 -51 -62 -125q0 -109 207 -223q268 -141 268 -367q0 -205 -151 -328 q-146 -118 -377 -118h-4q-246 2 -367 96z" />
<glyph unicode="T" horiz-adv-x="1030" d="M135 1171l41 209h1006l-41 -209h-385l-221 -1171h-240l221 1171h-381z" />
<glyph unicode="U" horiz-adv-x="1308" d="M139 401q0 78 19 193l149 786h240l-154 -805q-16 -86 -16 -167q0 -106 59 -168q59 -61 166 -62q268 0 342 395l154 807h239l-153 -802q-59 -311 -209 -457q-147 -143 -404 -144h-7q-196 0 -306 103q-119 111 -119 321z" />
<glyph unicode="V" horiz-adv-x="1185" d="M168 1380h244l80 -759q20 -182 30 -373h4q86 215 170 383l369 749h264l-719 -1380h-272z" />
<glyph unicode="W" horiz-adv-x="1736" d="M195 1380h239l15 -710v-69q0 -159 -7 -339h4q113 303 156 402l307 716h260l11 -696v-75q0 -154 -6 -341h4q66 203 145 402l297 710h252l-623 -1380h-258l-20 666q-1 46 -1 95q0 149 9 335h-4q-102 -295 -156 -420l-303 -676h-262z" />
<glyph unicode="X" horiz-adv-x="1120" d="M-74 0l527 705l-250 675h252l104 -305q53 -166 68 -221h6q59 106 133 223l209 303h285l-517 -678l269 -702h-254l-109 307q-41 106 -82 238h-4q-86 -143 -149 -242l-201 -303h-287z" />
<glyph unicode="Y" horiz-adv-x="1118" d="M156 1380h256l108 -393q41 -168 55 -242h5q61 109 143 246l250 389h282l-591 -809l-109 -571h-240l109 567z" />
<glyph unicode="Z" horiz-adv-x="1105" d="M-47 0l27 141l862 1028v7h-604l38 204h926l-28 -149l-852 -1020l2 -6h665l-39 -205h-997z" />
<glyph unicode="[" horiz-adv-x="616" d="M18 -229l312 1634h387l-27 -143h-205l-256 -1348h203l-26 -143h-388z" />
<glyph unicode="\" horiz-adv-x="681" d="M115 1403h172l352 -1485h-172z" />
<glyph unicode="]" horiz-adv-x="616" d="M-68 -229l27 143h205l256 1348h-203l27 143h387l-312 -1634h-387z" />
<glyph unicode="^" horiz-adv-x="1220" d="M104 373l422 958h160l420 -958h-184l-316 760h-4l-315 -760h-183z" />
<glyph unicode="_" horiz-adv-x="1024" d="M-127 -256l21 102h1024l-21 -102h-1024z" />
<glyph unicode="`" horiz-adv-x="796" d="M266 1421h244l145 -303h-172z" />
<glyph unicode="a" horiz-adv-x="1105" d="M57 317q0 279 176 480q199 223 527 223q160 0 303 -45l-105 -520q-41 -216 -41 -401q0 -28 1 -54h-220q0 55 17 223h-4q-133 -246 -359 -246q-133 0 -215 95q-80 94 -80 245zM305 360q0 -190 144 -190q90 0 172 102q90 109 122 291l52 262q-41 10 -99 11 q-160 0 -278 -152q-113 -145 -113 -324z" />
<glyph unicode="b" horiz-adv-x="1116" d="M84 246q0 80 20 172l207 1036h240l-123 -602l4 -2q125 170 326 170q150 0 231 -109q70 -96 70 -243q0 -262 -162 -463q-182 -227 -479 -228q-334 0 -334 269zM330 287q4 -127 133 -127q147 0 252 159q94 143 94 306q0 200 -156 200h-2q-94 0 -176 -88q-84 -92 -115 -239 l-18 -92q-12 -55 -12 -105v-14z" />
<glyph unicode="c" horiz-adv-x="880" d="M63 377q0 266 179 450q182 190 454 191q117 0 205 -37l-61 -186q-68 30 -147 30h-5q-166 0 -272 -131q-102 -123 -103 -288q0 -111 60 -173q59 -61 159 -61q109 0 211 47l11 -182q-119 -57 -287 -57q-186 0 -295 110q-109 106 -109 287z" />
<glyph unicode="d" horiz-adv-x="1114" d="M59 346q0 272 174 469q180 205 449 205q86 0 154 -29l88 463h237l-209 -1098q-35 -182 -45 -356h-219l21 176h-4q-129 -199 -343 -199q-135 0 -219 101q-84 100 -84 268zM307 385q0 -215 160 -215q86 0 162 84q84 92 112 240l60 303q-49 39 -137 39q-150 0 -254 -142 q-102 -135 -103 -309z" />
<glyph unicode="e" horiz-adv-x="980" d="M61 391q0 240 154 428q166 201 412 201q147 0 235 -78q86 -76 86 -203q0 -330 -600 -330q-26 0 -53 1q-2 -17 -2 -33q0 -60 29 -109q59 -102 204 -102q147 0 275 65l22 -174q-154 -80 -352 -80q-201 0 -309 115q-100 109 -101 299zM319 588h20q383 0 384 151 q0 103 -127 103q-104 0 -184 -82q-68 -72 -93 -172z" />
<glyph unicode="f" horiz-adv-x="630" d="M70 0l153 813h-131l37 184h129l10 52q39 223 166 335q104 92 262 93q94 0 148 -27l-45 -190q-39 18 -97 18q-158 0 -198 -231l-8 -50h206l-34 -184h-207l-154 -813h-237z" />
<glyph unicode="g" horiz-adv-x="1112" d="M23 -360l59 182q98 -59 262 -60q258 0 324 306l24 112h-4q-121 -176 -313 -176q-143 0 -230 107q-82 98 -82 245v6q0 262 170 451q184 207 482 207q190 0 346 -70l-152 -823q-61 -324 -204 -444q-135 -111 -369 -111q-205 0 -313 68zM313 393q0 -203 160 -203 q88 0 168 95q78 92 104 227l58 297q-53 25 -133 25q-152 0 -256 -140q-100 -133 -101 -301z" />
<glyph unicode="h" horiz-adv-x="1126" d="M41 0l276 1454h238l-117 -606h4q139 172 334 172q109 0 176 -66q74 -72 74 -202q0 -78 -18 -174l-109 -578h-237l106 559q12 78 12 131q0 135 -125 135q-90 0 -172 -96q-86 -100 -114 -254l-90 -475h-238z" />
<glyph unicode="i" horiz-adv-x="509" d="M41 0l190 997h238l-190 -997h-238zM268 1268q0 61 43 102q41 41 101 41q57 0 92 -35t35 -92q-2 -66 -45 -104q-41 -39 -105 -39q-53 0 -88 35q-33 35 -33 92z" />
<glyph unicode="j" horiz-adv-x="520" d="M-211 -414l29 183q29 -6 69 -7q129 0 174 234l189 1001h237l-182 -977q-49 -252 -135 -346q-90 -102 -252 -102q-72 0 -129 14zM279 1268q0 61 43 102q41 41 100 41q57 0 92 -35t35 -92q-2 -66 -45 -104q-41 -39 -105 -39q-53 0 -88 35q-33 35 -32 92z" />
<glyph unicode="k" horiz-adv-x="1015" d="M41 0l276 1454h238l-170 -889h4l92 109l297 323h295l-430 -409l287 -588h-264l-205 457l-117 -109l-65 -348h-238z" />
<glyph unicode="l" horiz-adv-x="509" d="M41 0l276 1454h240l-278 -1454h-238z" />
<glyph unicode="m" horiz-adv-x="1681" d="M41 0l127 688q20 106 49 309h207l-23 -174h5q135 197 348 197q109 0 172 -64q55 -55 61 -141q135 201 354 205q106 0 172 -66q70 -72 70 -200q0 -63 -16 -170l-109 -584h-231l102 557q14 68 14 125q0 143 -120 143q-86 0 -162 -94q-80 -100 -109 -254l-88 -477h-231 l108 565q12 82 13 117q0 143 -121 143q-84 0 -164 -100q-84 -104 -111 -254l-86 -471h-231z" />
<glyph unicode="n" horiz-adv-x="1126" d="M41 0l129 688q23 111 51 309h213l-22 -178h4q139 201 358 201q113 0 180 -66q74 -74 74 -209q0 -76 -18 -163l-109 -582h-239l106 563q12 74 12 119q0 143 -125 143q-88 0 -170 -94q-90 -104 -120 -270l-86 -461h-238z" />
<glyph unicode="o" horiz-adv-x="1112" d="M66 389q0 260 159 442q166 188 416 189q192 0 305 -123q102 -115 103 -289q0 -260 -160 -442q-166 -188 -416 -189q-186 0 -299 117q-109 115 -108 295zM311 395q0 -104 51 -168q52 -65 141 -65h3q127 0 215 147q82 135 82 297q0 90 -41 154q-51 76 -150 76 q-133 0 -221 -150q-80 -135 -80 -291z" />
<glyph unicode="p" horiz-adv-x="1116" d="M-43 -406l197 1033q23 129 57 374h215l-23 -167h5q131 182 335 186q154 0 240 -111q76 -100 76 -258q0 -270 -162 -469q-170 -205 -418 -205q-125 0 -198 43h-5l-81 -426h-238zM313 213q61 -51 160 -51q135 0 238 151q98 143 98 320q0 192 -156 192h-2q-94 0 -176 -96 q-88 -104 -119 -272z" />
<glyph unicode="q" horiz-adv-x="1116" d="M59 346q0 266 170 461q186 213 490 213q158 0 346 -62l-256 -1364h-240l121 566h-4q-117 -182 -324 -183q-139 0 -223 105q-80 102 -80 264zM307 377q0 -207 146 -207q96 0 180 94q84 96 110 240l58 303q-47 27 -137 27q-147 0 -254 -144q-102 -137 -103 -313z" />
<glyph unicode="r" horiz-adv-x="710" d="M41 0l117 614q18 92 51 383h207q-12 -141 -23 -209h6q117 231 312 232l53 -2l-47 -234q-12 2 -45 2q-121 0 -207 -112q-80 -102 -111 -273l-75 -401h-238z" />
<glyph unicode="s" horiz-adv-x="813" d="M4 51l62 170q115 -65 235 -65h4q70 0 113 37q41 33 41 86q0 86 -131 153q-197 104 -197 260q0 143 113 236q115 92 291 92q152 0 233 -51l-59 -172q-86 45 -187 45q-68 0 -108 -33q-43 -31 -43 -82q0 -74 129 -139q207 -111 207 -269q0 -162 -123 -253q-114 -89 -297 -89 h-4q-182 4 -279 74z" />
<glyph unicode="t" horiz-adv-x="681" d="M96 813l35 184h133l37 187l246 69l-47 -256h223l-37 -184h-223l-78 -401q-18 -84 -18 -142q0 -90 88 -90q45 0 82 6l-23 -186q-49 -20 -156 -20q-235 0 -235 202q0 82 20 187l86 444h-133z" />
<glyph unicode="u" horiz-adv-x="1116" d="M92 260q0 82 21 178l106 559h238l-103 -544q-16 -78 -16 -138q0 -141 127 -141q86 0 166 92q82 96 112 246l91 485h239l-131 -688q-20 -106 -49 -309h-213l22 174h-4q-147 -197 -346 -197q-260 0 -260 283z" />
<glyph unicode="v" horiz-adv-x="995" d="M98 997h246l64 -495l16 -150q10 -78 12 -110h6q47 123 109 254l248 501h264l-555 -997h-240z" />
<glyph unicode="w" horiz-adv-x="1476" d="M115 997h237l19 -485q2 -55 2 -110q0 -92 -6 -185h4q33 92 116 281l242 499h199l41 -485q10 -154 11 -261q0 -18 -1 -34h4q49 156 102 293l215 487h242l-489 -997h-224l-45 434q-10 134 -10 255v40h-4l-117 -285l-223 -444h-223z" />
<glyph unicode="x" horiz-adv-x="966" d="M-88 0l434 514l-233 483h262l141 -344h6l51 76q29 45 56 80l143 188h275l-420 -485l233 -512h-262l-80 188q-41 98 -67 179h-5q-92 -145 -102 -160l-156 -207h-276z" />
<glyph unicode="y" horiz-adv-x="966" d="M-66 -254q117 43 177 88q109 76 176 199q10 18 4 45l-199 919h250l78 -479q31 -178 39 -250h4q80 201 96 238l213 491h254l-364 -735q-190 -379 -365 -549q-145 -139 -307 -172z" />
<glyph unicode="z" horiz-adv-x="888" d="M-49 0l26 145l396 433q115 123 227 219l2 6h-465l39 194h750l-29 -153l-389 -424q-115 -125 -225 -221v-4h503l-36 -195h-799z" />
<glyph unicode="{" horiz-adv-x="616" d="M66 522l24 133q154 2 184 146q8 51 19 166q8 109 18 166q49 272 340 272h64l-29 -143h-37q-131 -2 -166 -162q-8 -41 -14 -131q-4 -94 -14 -148q-31 -193 -199 -231v-4q123 -29 123 -150q0 -80 -49 -215q-47 -141 -47 -194q0 -109 110 -111h35l-27 -143h-49 q-256 0 -256 213q0 74 51 231q51 145 52 201q0 104 -133 104z" />
<glyph unicode="|" horiz-adv-x="468" d="M186 -512v2048h168v-2048h-168z" />
<glyph unicode="}" horiz-adv-x="616" d="M-72 -227l29 143h37q129 0 166 160q8 43 14 131q4 94 14 147q31 193 199 232v4q-123 33 -123 149q0 43 47 213q47 145 47 199q0 109 -110 111h-35l27 143h49q256 0 256 -213q0 -82 -49 -234q-51 -145 -52 -200q0 -104 134 -105l-25 -133q-154 -2 -184 -145 q-8 -49 -19 -164q-8 -111 -18 -166q-49 -272 -340 -272h-64z" />
<glyph unicode="~" horiz-adv-x="1220" d="M115 412q-2 172 73 264q70 82 191 82q113 0 278 -92q156 -84 220 -84q92 0 96 166h162q14 -346 -256 -347q-113 0 -293 101q-137 78 -205 78q-96 0 -105 -168h-161z" />
<glyph unicode="&#xa2;" d="M170 575q0 233 149 404q145 164 361 199l37 198h162l-37 -192q113 -4 182 -45l-76 -181q-72 41 -182 41q-139 0 -240 -112q-102 -117 -102 -285q0 -111 63 -176q63 -66 175 -66q94 0 196 43l14 -178q-96 -47 -227 -51l-37 -201h-162l39 205q-154 27 -237 137 q-78 102 -78 260z" />
<glyph unicode="&#xa3;" d="M37 0l24 139q201 86 263 291q18 55 18 145h-188l32 175h156q4 145 25 235q88 369 456 369q131 0 207 -49l-65 -185q-63 35 -154 35q-188 0 -227 -209q-14 -82 -15 -196h291l-33 -175h-264q-8 -82 -26 -139q-41 -143 -156 -229v-4h561l-33 -203h-872z" />
<glyph unicode="&#xa5;" d="M74 342l24 125h303l27 139h-305l24 125h244l-215 600h248l96 -370q37 -154 47 -207h6l121 211l244 366h262l-459 -600h242l-25 -125h-307l-26 -139h307l-25 -125h-305l-65 -342h-224l64 342h-303z" />
<glyph unicode="&#xa8;" horiz-adv-x="796" d="M223 1270q0 57 39 96q39 37 94 37q117 0 117 -119q0 -59 -39 -98q-37 -37 -94 -37q-49 0 -82 33q-35 35 -35 88zM623 1270q0 57 39 96q39 37 94 37q117 0 116 -119q0 -59 -38 -98q-37 -37 -95 -37q-49 0 -82 33q-35 35 -34 88z" />
<glyph unicode="&#xa9;" horiz-adv-x="1380" d="M117 696q0 262 182 447q184 184 444 184q259 0 439 -184q178 -184 178 -447q0 -264 -180 -448q-178 -186 -439 -187q-260 0 -442 187q-182 184 -182 448zM236 692q0 -223 147 -375q145 -154 358 -153q209 -2 355 151q145 154 145 379q0 223 -145 377t-357 154 q-211 0 -356 -154q-147 -156 -147 -379zM397 684q0 170 121 279q113 102 273 102q168 0 225 -57l-27 -99q-80 49 -198 49q-127 0 -197 -73q-70 -72 -70 -195q0 -117 70 -192q74 -78 197 -78q127 0 208 53l27 -94q-96 -66 -254 -66q-174 0 -276 107q-98 102 -99 264z" />
<glyph unicode="&#xab;" horiz-adv-x="897" d="M55 516l289 385h191l-302 -387l201 -381h-174zM424 516l287 385h192l-301 -387l201 -381h-174z" />
<glyph unicode="&#xad;" horiz-adv-x="645" d="M61 459l33 174h512l-33 -174h-512z" />
<glyph unicode="&#xae;" horiz-adv-x="825" d="M170 1057q0 143 104 243t254 101q148 -1 250 -101t103 -243q0 -145 -103 -248q-102 -100 -252 -100t-252 100q-104 102 -104 248zM268 1055q0 -113 74 -189q74 -78 184 -78q109 -2 185 78q72 76 71 189q0 113 -73 188q-74 78 -187 78q-108 0 -182 -78q-72 -76 -72 -188z M385 885v329q53 12 139 13q86 0 123 -27q35 -20 35 -70q0 -55 -72 -77v-4q49 -16 64 -84q14 -61 22 -80h-98q-10 12 -25 76q-8 49 -61 49h-35v-125h-92zM479 1073h33q70 0 70 45t-64 45l-39 -2v-88z" />
<glyph unicode="&#xb4;" horiz-adv-x="796" d="M387 1118l197 303h252l-269 -303h-180z" />
<glyph unicode="&#xb8;" horiz-adv-x="796" d="M49 -379l45 105q49 -31 109 -31q82 0 82 63q0 66 -142 78l117 172h135l-73 -104q119 -29 118 -131q0 -92 -78 -146q-68 -45 -163 -45q-96 0 -150 39z" />
<glyph unicode="&#xbb;" horiz-adv-x="894" d="M12 133l301 389l-200 379h174l205 -385l-289 -383h-191zM381 133l301 389l-201 379h174l205 -385l-289 -383h-190z" />
<glyph unicode="&#x2c6;" horiz-adv-x="796" d="M240 1118l243 303h166l148 -303h-162l-84 172h-4l-131 -172h-176z" />
<glyph unicode="&#x2da;" horiz-adv-x="798" d="M332 1280q-2 94 65 154q66 57 170 57q89 0 146 -49q61 -51 61 -142q-2 -92 -72 -149q-66 -53 -163 -53q-88 0 -146 49q-61 51 -61 133zM455 1286q0 -98 92 -98q104 0 104 112q0 100 -96 101q-45 0 -74 -33q-27 -33 -26 -82z" />
<glyph unicode="&#x2dc;" horiz-adv-x="796" d="M268 1153q31 233 178 233q53 0 127 -43q57 -37 80 -36q43 0 64 88h121q-33 -227 -181 -228q-61 0 -127 41q-47 37 -79 37q-41 0 -60 -92h-123z" />
<glyph unicode="&#x401;" horiz-adv-x="1015" d="M51 0l260 1380h766l-39 -202h-526l-68 -363h496l-39 -201h-495l-78 -411h557l-39 -203h-795zM406 1581q0 55 38 94q39 37 93 37q51 0 84 -35q31 -35 30 -82q0 -55 -39 -94q-37 -37 -92 -37q-47 0 -80 33q-35 35 -34 84zM809 1581q0 55 39 94q39 37 92 37q51 0 84 -35 q31 -35 31 -82q0 -55 -39 -94q-37 -37 -92 -37q-47 0 -80 33q-35 35 -35 84z" />
<glyph unicode="&#x402;" horiz-adv-x="1366" d="M137 1174l43 206h1055l-41 -206h-461l-57 -314h4q96 61 229 62q174 0 273 -123q96 -119 96 -316q0 -354 -211 -571q-168 -178 -395 -207l-37 201q145 33 242 135q147 158 147 416q0 266 -209 266q-86 0 -176 -57l-125 -666h-235l219 1174h-361z" />
<glyph unicode="&#x403;" horiz-adv-x="876" d="M51 0l262 1380h715l-41 -209h-475l-223 -1171h-238zM543 1454l198 250h281l-274 -250h-205z" />
<glyph unicode="&#x404;" horiz-adv-x="1140" d="M100 573q0 393 269 629q231 199 553 199q193 0 313 -64l-70 -190q-102 53 -266 53q-195 -2 -336 -115q-141 -111 -182 -294h608l-31 -191h-598q-4 -29 -4 -57q2 -152 95 -252q104 -113 288 -113q147 0 287 60l25 -189q-139 -72 -371 -72q-279 0 -432 170 q-147 160 -148 426z" />
<glyph unicode="&#x405;" horiz-adv-x="1003" d="M10 76l82 196q133 -88 311 -88q106 0 177 54q78 55 77 151q0 119 -192 223q-281 152 -281 361q0 193 150 313q143 115 358 115q195 0 307 -70l-77 -196q-113 61 -248 61q-111 0 -178 -55q-61 -51 -62 -125q0 -109 207 -223q268 -141 268 -367q0 -205 -151 -328 q-147 -119 -381 -118q-242 0 -367 96z" />
<glyph unicode="&#x406;" horiz-adv-x="524" d="M45 0l262 1380h238l-262 -1380h-238z" />
<glyph unicode="&#x407;" horiz-adv-x="524" d="M47 0l260 1380h240l-262 -1380h-238zM133 1581q0 55 39 94q39 37 92 37q51 0 84 -35q31 -35 31 -82q0 -55 -39 -94q-37 -37 -92 -37q-47 0 -80 33q-35 35 -35 84zM537 1581q0 55 38 94q39 37 93 37q51 0 84 -35q31 -35 30 -82q0 -55 -39 -94q-37 -37 -92 -37 q-47 0 -80 33q-35 35 -34 84z" />
<glyph unicode="&#x408;" horiz-adv-x="784" d="M-68 12l48 203q74 -27 170 -27q209 0 262 291l172 901h237l-176 -927q-47 -252 -164 -365q-117 -111 -331 -111q-143 0 -218 35z" />
<glyph unicode="&#x409;" horiz-adv-x="1830" d="M-72 180q117 8 189 86q141 137 213 522l110 592h820l-97 -497q61 12 154 12q197 0 315 -98q127 -104 127 -297q0 -207 -141 -338q-184 -176 -551 -176q-172 0 -305 18l221 1174h-352l-72 -373q-102 -537 -295 -709q-127 -115 -315 -116zM1030 182q49 -6 115 -6 q143 0 246 74q115 82 114 221q0 233 -256 234q-63 0 -125 -11z" />
<glyph unicode="&#x40a;" horiz-adv-x="1849" d="M51 0l262 1380h238l-105 -540h490l102 540h238l-100 -514q66 12 153 13q195 0 313 -95q133 -106 134 -299q0 -195 -140 -327q-182 -172 -551 -172q-174 0 -307 18l121 641h-489l-121 -645h-238zM1047 182q49 -6 118 -6q145 0 246 74q111 80 111 211q0 113 -80 172 q-70 55 -185 55q-66 0 -118 -12z" />
<glyph unicode="&#x40b;" horiz-adv-x="1382" d="M137 1176l41 204h1043l-39 -204h-457l-66 -345h5q129 88 297 89q150 0 227 -89q74 -82 72 -221q0 -68 -25 -211l-72 -399h-237l73 389q18 96 19 164q0 166 -178 166q-121 0 -217 -84l-121 -635h-234l221 1176h-352z" />
<glyph unicode="&#x40c;" horiz-adv-x="1140" d="M49 0l264 1380h236l-117 -600h39l514 600h293l-596 -632q195 -61 264 -412q59 -289 76 -336h-246q-25 68 -67 317q-29 152 -82 215q-61 74 -189 74h-37l-114 -606h-238zM616 1454l199 250h281l-275 -250h-205z" />
<glyph unicode="&#x40e;" horiz-adv-x="1083" d="M72 8l45 195q39 -16 104 -17q135 0 223 170q25 37 9 88l-289 936h262l143 -551q25 -96 62 -258h6l121 287l233 522h273l-355 -696q-233 -459 -381 -592q-121 -115 -292 -115q-98 0 -164 31zM477 1706h172q-10 -123 94 -123t131 123h177q-49 -236 -320 -236 q-260 0 -254 236z" />
<glyph unicode="&#x40f;" horiz-adv-x="1290" d="M51 0l260 1380h242l-223 -1177h524l223 1177h238l-260 -1380h-385l-88 -367h-191l55 367h-395z" />
<glyph unicode="&#x410;" horiz-adv-x="1220" d="M-57 0l692 1380h299l174 -1380h-250l-39 393h-434l-188 -393h-254zM461 578h344l-39 344l-21 262h-4l-55 -131q-35 -84 -57 -131z" />
<glyph unicode="&#x411;" horiz-adv-x="1122" d="M53 4l260 1376h774l-36 -204h-537l-59 -310q57 14 155 15q190 0 308 -97q127 -104 126 -292q0 -227 -167 -361q-182 -145 -510 -145q-180 0 -314 18zM324 180q43 -8 120 -8q137 0 238 74q113 82 113 217q0 236 -254 235q-49 0 -123 -12z" />
<glyph unicode="&#x412;" horiz-adv-x="1140" d="M53 12l254 1348q154 31 332 31q215 0 332 -82q133 -82 133 -236q0 -125 -86 -219q-78 -84 -201 -117v-6q221 -68 221 -303q0 -203 -178 -326q-160 -113 -487 -112q-199 0 -320 22zM319 184q55 -6 125 -6q147 0 238 60q104 70 104 198q0 203 -270 203h-113zM440 815h111 q137 0 221 59q86 61 86 166q0 164 -219 164q-86 0 -127 -10z" />
<glyph unicode="&#x413;" horiz-adv-x="876" d="M51 0l262 1380h715l-41 -209h-475l-223 -1171h-238z" />
<glyph unicode="&#x414;" horiz-adv-x="1298" d="M-137 -342l90 530l102 9q125 172 213 370q86 207 133 451l70 362h803l-223 -1183l125 -9l-125 -530h-193l53 342h-772l-86 -342h-190zM305 201h508l184 975h-346l-45 -230q-43 -231 -125 -426q-76 -184 -176 -319z" />
<glyph unicode="&#x415;" horiz-adv-x="1015" d="M49 0l262 1380h766l-39 -202h-526l-70 -363h498l-39 -201h-495l-78 -411h557l-39 -203h-797z" />
<glyph unicode="&#x416;" horiz-adv-x="1662" d="M-61 0q27 39 184 367q92 186 176 266q92 88 242 115l-346 632h254l272 -604h35l110 604h228l-113 -604h39l485 604h271l-572 -632q199 -55 266 -404q41 -260 72 -344h-242q-20 66 -65 338q-25 137 -76 201q-57 70 -168 69h-39l-112 -608h-232l115 610h-35 q-201 0 -336 -278q-129 -276 -162 -332h-251z" />
<glyph unicode="&#x417;" horiz-adv-x="985" d="M-25 82l76 182q139 -84 301 -84q121 0 203 62q88 68 88 182q0 102 -94 158q-78 49 -187 47h-94l33 182h80q131 0 219 55q102 61 100 176q0 78 -53 123q-49 43 -129 43q-133 0 -274 -80l-49 170q162 104 374 105q160 0 262 -76q117 -86 117 -246q0 -135 -92 -231 q-84 -90 -215 -121l-2 -4q111 -25 178 -104q72 -84 72 -207q0 -207 -164 -328q-150 -109 -373 -109q-219 0 -377 105z" />
<glyph unicode="&#x418;" horiz-adv-x="1323" d="M51 0l262 1380h228l-99 -510q-68 -346 -127 -577h4q111 180 316 465l455 622h256l-263 -1380h-225l98 520q66 332 115 529l-4 2q-111 -188 -313 -473l-428 -578h-275z" />
<glyph unicode="&#x419;" horiz-adv-x="1323" d="M51 0l262 1380h226l-97 -510q-68 -346 -127 -577h4q111 180 316 465l455 622h256l-263 -1380h-225l98 520q66 332 115 529l-6 2q-106 -186 -311 -473l-428 -578h-275zM594 1702h172q-10 -123 94 -123t131 123h176q-49 -236 -319 -236q-260 0 -254 236z" />
<glyph unicode="&#x41a;" horiz-adv-x="1140" d="M49 0l264 1380h236l-117 -600h39l514 600h293l-596 -632q195 -61 264 -412q59 -289 76 -336h-246q-25 68 -67 317q-29 152 -82 215q-61 74 -189 74h-37l-114 -606h-238z" />
<glyph unicode="&#x41b;" horiz-adv-x="1259" d="M-74 178q119 12 193 94q135 135 207 512l112 596h844l-262 -1380h-240l226 1178h-379l-72 -375q-100 -526 -287 -701q-119 -119 -319 -125z" />
<glyph unicode="&#x41c;" horiz-adv-x="1642" d="M16 0l353 1380h313l74 -645q25 -301 26 -397h9q72 188 174 395l333 647h320l-182 -1380h-232l90 649q61 387 86 506h-6q-133 -301 -229 -485l-338 -654h-186l-72 643q-23 213 -37 496h-4l-111 -506l-159 -649h-222z" />
<glyph unicode="&#x41d;" horiz-adv-x="1327" d="M51 0l262 1380h238l-107 -559h562l106 559h240l-262 -1380h-240l117 610h-561l-117 -610h-238z" />
<glyph unicode="&#x41e;" horiz-adv-x="1409" d="M98 547q0 399 250 655q205 201 494 201q264 0 409 -168q133 -154 133 -404q0 -403 -241 -649q-201 -205 -500 -205q-257 0 -407 170q-137 156 -138 400zM352 559q0 -170 76 -268q84 -113 250 -113q189 0 326 213q127 199 126 432q0 379 -317 379q-197 0 -334 -213 q-127 -197 -127 -430z" />
<glyph unicode="&#x41f;" horiz-adv-x="1296" d="M51 0l262 1380h1008l-262 -1380h-240l225 1178h-530l-225 -1178h-238z" />
<glyph unicode="&#x420;" horiz-adv-x="1095" d="M49 0l258 1358q135 33 332 33q231 0 354 -99q127 -98 127 -274q0 -236 -176 -375q-162 -131 -432 -131q-37 0 -129 10l-100 -522h-234zM420 719q59 -12 125 -12q147 0 243 86q92 82 93 206q0 201 -240 201q-90 0 -133 -12z" />
<glyph unicode="&#x421;" horiz-adv-x="1167" d="M100 557q0 442 324 680q217 164 514 164q205 0 301 -62l-70 -192q-90 49 -260 49q-209 0 -350 -129q-201 -174 -201 -479q0 -184 95 -291q100 -115 297 -115q164 0 276 51l23 -192q-135 -63 -361 -64q-270 0 -428 156q-160 156 -160 424z" />
<glyph unicode="&#x422;" horiz-adv-x="1030" d="M135 1171l41 209h1006l-41 -209h-385l-221 -1171h-240l221 1171h-381z" />
<glyph unicode="&#x423;" horiz-adv-x="1083" d="M72 8l45 195q39 -16 104 -17q135 0 223 170q25 37 9 88l-289 936h262l143 -551q25 -96 62 -258h6l121 287l233 522h273l-355 -696q-242 -467 -381 -592q-121 -115 -292 -115q-98 0 -164 31z" />
<glyph unicode="&#x424;" horiz-adv-x="1517" d="M111 608q0 348 237 547q197 166 457 168l22 113h226l-23 -117q195 -31 318 -162q137 -150 137 -391q0 -332 -217 -526q-195 -174 -477 -179l-23 -118h-225l24 127q-193 33 -317 161q-139 147 -139 377zM352 612q0 -150 72 -250q66 -94 176 -118l172 907 q-160 -6 -283 -147q-137 -156 -137 -392zM825 236q184 10 301 157q117 152 117 391q0 154 -69 250q-66 92 -179 111z" />
<glyph unicode="&#x425;" horiz-adv-x="1120" d="M-74 0l527 705l-250 675h252l104 -305q37 -111 68 -221h6q59 106 133 223l209 303h285l-517 -678l269 -702h-254l-109 307q-41 106 -82 238h-4q-86 -143 -149 -242l-201 -303h-287z" />
<glyph unicode="&#x426;" horiz-adv-x="1323" d="M51 0l262 1380h240l-225 -1177h526l225 1177h238l-225 -1185l125 -7l-125 -530h-193l53 342h-901z" />
<glyph unicode="&#x427;" horiz-adv-x="1189" d="M174 795q0 68 23 180l77 405h238l-76 -393q-16 -92 -16 -133q0 -172 205 -172q129 0 231 66l121 632h237l-264 -1386h-237l106 557l-4 2q-119 -66 -289 -66q-164 0 -258 82t-94 226z" />
<glyph unicode="&#x428;" horiz-adv-x="1732" d="M51 0l262 1380h236l-225 -1177h370l224 1177h235l-225 -1177h370l224 1177h235l-264 -1380h-1442z" />
<glyph unicode="&#x429;" horiz-adv-x="1763" d="M51 0l262 1380h234l-223 -1177h370l224 1177h233l-223 -1177h370l224 1177h233l-225 -1185l123 -7l-123 -530h-193l54 342h-1340z" />
<glyph unicode="&#x42a;" horiz-adv-x="1341" d="M135 1174l39 206h598l-98 -497q82 12 151 12q201 0 320 -98q125 -106 125 -299q0 -203 -137 -336q-182 -176 -555 -176q-170 0 -304 18l222 1170h-361zM541 184q47 -8 121 -8q139 0 239 74q115 82 115 219q0 236 -256 236q-70 0 -123 -15z" />
<glyph unicode="&#x42b;" horiz-adv-x="1583" d="M51 4l260 1376h238l-96 -497q61 12 155 12q186 0 301 -98q125 -106 125 -297q0 -205 -137 -338q-182 -176 -541 -176q-172 0 -305 18zM319 184q35 -8 119 -8q133 0 232 72q111 82 110 219q0 238 -243 238q-55 0 -121 -13zM1094 0l264 1380h250l-265 -1380h-249z" />
<glyph unicode="&#x42c;" horiz-adv-x="1120" d="M51 4l258 1376h238l-96 -497q59 12 155 12q197 0 314 -98q127 -104 127 -299q0 -203 -136 -334q-186 -178 -557 -178q-170 0 -303 18zM317 184q47 -8 121 -8q139 0 242 72q113 82 113 219q0 238 -258 238q-63 0 -121 -13z" />
<glyph unicode="&#x42d;" horiz-adv-x="1144" d="M-23 57l64 189q131 -66 289 -66q203 0 340 121q129 113 166 295h-598l36 192h590q2 14 2 52q-2 152 -94 252q-100 109 -268 108q-141 0 -275 -55l-47 180q160 78 355 78q268 0 426 -166q154 -166 153 -444q0 -381 -235 -615q-205 -201 -547 -201q-221 0 -357 80z" />
<glyph unicode="&#x42e;" horiz-adv-x="1851" d="M51 0l260 1380h240l-107 -559h193q63 233 201 381q195 201 471 201q252 0 391 -168q127 -154 127 -404q0 -399 -230 -651q-193 -203 -475 -203q-242 0 -385 166q-131 152 -131 371q0 53 8 100h-211l-114 -614h-238zM844 559q0 -170 71 -270q80 -113 238 -113 q178 0 307 213q119 199 119 434q0 381 -299 381q-184 0 -315 -215q-121 -197 -121 -430z" />
<glyph unicode="&#x42f;" horiz-adv-x="1122" d="M-59 0q35 51 163 311q147 295 312 344v7q-227 63 -228 299q0 215 187 335q158 94 413 95q207 0 357 -33l-254 -1358h-240l111 575h-80q-127 0 -219 -104q-51 -59 -129 -215q-82 -178 -131 -256h-262zM434 952q0 -96 76 -151q68 -51 174 -51q63 0 113 4l80 440 q-66 10 -125 10q-137 0 -224 -61q-94 -68 -94 -191z" />
<glyph unicode="&#x430;" horiz-adv-x="1105" d="M59 317q0 279 177 480q199 223 526 223q162 0 301 -45l-100 -520q-47 -248 -41 -455h-220q0 55 17 223h-4q-135 -246 -361 -246q-133 0 -215 95q-80 94 -80 245zM307 360q0 -190 144 -190q90 0 172 102q90 111 122 291l50 262q-37 10 -97 11q-160 0 -278 -152 q-113 -145 -113 -324z" />
<glyph unicode="&#x431;" horiz-adv-x="1099" d="M94 455q0 451 246 721q193 219 616 264q119 10 185 35l-35 -203q-59 -18 -160 -31q-334 -39 -467 -182q-96 -102 -139 -260h8q135 199 350 198q162 0 256 -112q88 -106 88 -275q-2 -252 -151 -436q-160 -197 -410 -197q-186 0 -286 127q-100 125 -101 351zM330 403 q0 -104 43 -172q47 -76 137 -75q133 -1 215 151q70 129 70 283q0 98 -39 160q-45 72 -133 71q-117 0 -205 -123q-88 -117 -88 -295z" />
<glyph unicode="&#x432;" horiz-adv-x="1038" d="M76 279q0 162 63 344q74 217 197 307q121 90 301 90q324 0 324 -238q0 -174 -234 -243v-4q84 -10 141 -62q66 -59 66 -154q0 -172 -166 -264q-137 -76 -326 -75q-367 0 -366 299zM315 293q0 -145 156 -146q94 0 158 46q63 45 63 118q0 131 -178 131q-84 1 -184 -28 q-14 -82 -15 -121zM360 569q203 31 277 70q94 45 94 117q0 98 -121 98q-172 0 -250 -285z" />
<glyph unicode="&#x433;" horiz-adv-x="813" d="M18 246q0 131 105 219q63 53 229 127q205 90 205 160q0 84 -119 88q-98 0 -217 -52l-31 160q135 70 295 70q147 -2 228 -72q78 -70 78 -188q0 -188 -324 -330q-203 -92 -203 -176q0 -92 121 -94q119 0 258 71l31 -168q-152 -86 -328 -81q-328 4 -328 266z" />
<glyph unicode="&#x434;" horiz-adv-x="1085" d="M63 383q0 233 138 416q150 199 374 198q205 0 273 -184h6q2 25 2 76q0 176 -96 266q-84 82 -287 98q-156 16 -184 23l-6 199q-6 2 262 -27q238 -25 352 -139q154 -139 154 -455q0 -328 -136 -573q-164 -303 -466 -304q-182 0 -285 109q-100 109 -101 297zM311 381 q0 -225 176 -225q121 -1 205 155q74 135 76 271q0 96 -41 159q-47 74 -135 74q-133 0 -213 -151q-70 -129 -68 -283z" />
<glyph unicode="&#x435;" horiz-adv-x="980" d="M61 391q0 240 154 428q166 201 412 201q147 0 235 -78q86 -76 86 -203q0 -344 -653 -329q-10 -80 27 -142q59 -102 204 -102q147 0 275 65l22 -174q-154 -80 -352 -80q-201 0 -309 115q-100 109 -101 299zM319 588q403 -4 404 151q0 103 -127 103q-104 0 -184 -82 q-68 -72 -93 -172z" />
<glyph unicode="&#x436;" horiz-adv-x="1404" d="M-76 0q4 6 129 262q131 270 328 287l-260 448h258l190 -426h31l82 426h223l-84 -426h35l354 426h267l-426 -446q133 -33 182 -283q55 -254 59 -268h-229q-6 16 -49 225q-41 207 -187 207h-32l-80 -432h-226l84 432h-24q-170 0 -268 -192q-18 -35 -62 -129 q-35 -72 -57 -111h-238z" />
<glyph unicode="&#x437;" horiz-adv-x="888" d="M-37 76l64 162q131 -78 276 -78q88 0 152 33q74 39 73 110q0 135 -229 135h-102l24 160h96q92 0 162 33q80 37 80 104q0 111 -151 111q-121 0 -242 -66l-45 146q154 92 336 92q143 0 235 -51q119 -66 119 -199q0 -195 -258 -244v-2q90 -14 154 -69q74 -66 73 -162 q0 -162 -153 -244q-121 -66 -301 -65q-219 0 -363 94z" />
<glyph unicode="&#x438;" horiz-adv-x="1116" d="M92 260q0 82 21 178l106 559h238l-103 -544q-16 -78 -16 -138q0 -141 127 -141q86 0 166 92q84 96 112 248l91 483h239l-131 -688q-20 -106 -49 -309h-213l22 174h-4q-147 -197 -346 -197q-260 0 -260 283z" />
<glyph unicode="&#x439;" horiz-adv-x="1116" d="M92 260q0 82 21 178l106 559h238l-103 -544q-16 -78 -16 -138q0 -141 127 -141q86 0 166 92q84 96 112 248l91 483h239l-131 -688q-20 -106 -49 -309h-213l22 174h-4q-147 -197 -346 -197q-260 0 -260 283zM455 1409h159q-8 -63 17 -100q23 -41 71 -41q90 0 129 141h160 q-57 -260 -305 -260q-254 0 -231 260z" />
<glyph unicode="&#x43a;" horiz-adv-x="991" d="M41 0l190 997h232l-80 -424h33l379 424h282l-459 -450q131 -43 191 -289q63 -233 76 -258h-236l-69 240q-33 104 -74 145q-45 45 -123 45h-27l-82 -430h-233z" />
<glyph unicode="&#x43b;" horiz-adv-x="1083" d="M-63 178q86 6 133 51q109 82 166 367l75 401h736l-189 -997h-237l151 811h-274l-43 -219q-78 -393 -240 -512q-102 -92 -262 -92z" />
<glyph unicode="&#x43c;" horiz-adv-x="1417" d="M16 0l267 997h297l57 -440q23 -184 27 -252h4q47 106 151 299l215 393h303l-131 -997h-221l64 432l53 340h-8q-29 -70 -156 -309l-244 -451h-182l-55 441q-25 205 -33 321h-8q-45 -221 -78 -346l-109 -428h-213z" />
<glyph unicode="&#x43d;" horiz-adv-x="1114" d="M41 0l188 997h238l-72 -383h369l74 383h237l-188 -997h-240l82 428h-369l-81 -428h-238z" />
<glyph unicode="&#x43e;" horiz-adv-x="1110" d="M63 389q0 260 160 442q166 188 418 189q193 0 305 -123q102 -115 103 -289q0 -260 -160 -442q-166 -188 -418 -189q-186 0 -299 117q-109 115 -109 295zM309 395q0 -104 51 -168q53 -66 144 -65q127 0 217 147q82 135 82 297q0 90 -41 154q-51 76 -152 76 q-133 0 -221 -150q-80 -135 -80 -291z" />
<glyph unicode="&#x43f;" horiz-adv-x="1126" d="M41 0l129 688q29 150 51 309h213l-22 -178h4q139 201 358 201q113 0 180 -66q74 -74 74 -209q0 -76 -18 -163l-109 -582h-239l106 563q12 74 12 119q0 143 -125 143q-88 0 -170 -94q-90 -104 -120 -270l-86 -461h-238z" />
<glyph unicode="&#x440;" horiz-adv-x="1122" d="M-43 -406l197 1033q23 129 57 374h215l-23 -167h5q131 182 335 186q154 0 240 -111q76 -100 76 -258q0 -270 -162 -469q-170 -205 -418 -205q-125 0 -198 43h-5l-81 -426h-238zM313 213q61 -51 160 -51q135 0 238 151q98 143 98 320q0 193 -158 192q-94 0 -178 -96 q-88 -104 -117 -272z" />
<glyph unicode="&#x441;" horiz-adv-x="876" d="M61 377q0 266 179 450q182 190 454 191q117 0 205 -37l-61 -186q-70 31 -152 30q-166 0 -272 -131q-102 -123 -103 -288q0 -111 60 -173q59 -61 159 -61q109 0 211 47l11 -182q-119 -57 -287 -57q-186 0 -295 110q-109 106 -109 287z" />
<glyph unicode="&#x442;" horiz-adv-x="1681" d="M41 0l127 688q20 106 49 309h207l-23 -174h5q135 197 348 197q109 0 172 -64q55 -55 61 -141q135 201 354 205q106 0 172 -66q70 -72 70 -200q0 -63 -16 -170l-109 -584h-231l102 557q14 68 14 125q0 143 -120 143q-86 0 -162 -94q-80 -100 -109 -254l-88 -477h-231 l108 565q12 82 13 117q0 143 -121 143q-84 0 -164 -100q-84 -104 -111 -254l-86 -471h-231z" />
<glyph unicode="&#x443;" horiz-adv-x="964" d="M-66 -254q117 43 177 88q109 76 176 199q10 18 4 47l-199 917h250l119 -731h4l41 103l264 628h252q-299 -627 -358 -745q-184 -360 -367 -539q-145 -139 -307 -172z" />
<glyph unicode="&#x444;" horiz-adv-x="1452" d="M57 328q0 254 127 463q141 229 351 229q119 0 159 -111h4l103 545h215l-111 -551h4q100 117 228 117q131 0 198 -109q61 -96 62 -254q0 -256 -123 -458q-137 -221 -340 -222q-129 0 -178 109h-2l-88 -492h-224l99 494h-4q-88 -111 -232 -111q-113 0 -178 93 q-70 96 -70 258zM295 354q0 -184 119 -184q135 0 178 190l53 267q10 57 10 100q-2 43 -28 74q-29 35 -68 35q-114 -1 -194 -177q-70 -150 -70 -305zM809 350q-10 -53 4 -88q6 -35 33 -63q33 -33 78 -31q100 6 172 168q63 143 63 297q0 193 -112 192q-85 0 -144 -92 q-33 -66 -51 -162z" />
<glyph unicode="&#x445;" horiz-adv-x="966" d="M-88 0l434 514l-233 483h262l141 -344h6l51 76q29 45 56 80l143 188h275l-420 -485l233 -512h-262l-80 188q-41 98 -67 179h-5q-92 -145 -102 -160l-156 -207h-276z" />
<glyph unicode="&#x446;" horiz-adv-x="1142" d="M92 260q0 82 21 178l106 559h238l-103 -544q-16 -78 -16 -138q0 -141 127 -141q86 0 166 92q84 96 112 246l93 485h237l-115 -608q-18 -84 -18 -135q0 -123 139 -125l-139 -434h-174l82 305q-57 14 -90 66q-25 39 -29 114h-4q-150 -207 -360 -203q-272 0 -273 283z" />
<glyph unicode="&#x447;" horiz-adv-x="1064" d="M121 580q0 61 22 170l50 247h239l-47 -227q-18 -92 -18 -137q0 -127 147 -127q113 0 197 72l77 419h238l-190 -997h-238l80 397h-4q-109 -70 -252 -69q-301 0 -301 252z" />
<glyph unicode="&#x448;" horiz-adv-x="1656" d="M92 244q0 63 17 170l108 583h234l-105 -557q-14 -72 -14 -125q0 -143 117 -143q86 0 159 94q78 98 107 254l88 477h231l-108 -565q-12 -82 -13 -117q0 -143 115 -143q80 0 160 100q82 104 108 252l88 473h232l-127 -682q-18 -94 -29 -315h-215q2 80 10 176h-4 q-129 -199 -340 -199q-106 0 -168 64q-57 55 -63 141q-135 -205 -356 -205q-102 0 -164 66q-68 72 -68 201z" />
<glyph unicode="&#x449;" horiz-adv-x="1687" d="M92 244q0 63 17 170l108 583h234l-105 -557q-14 -72 -14 -125q0 -143 117 -143q82 0 157 94q78 100 107 254l90 477h229l-106 -565q-12 -82 -13 -117q0 -143 115 -143q80 0 160 100q82 104 108 252l88 473h232l-111 -594q-20 -102 -20 -151q0 -119 139 -121l-139 -436 h-174l82 305q-53 12 -88 68q-33 51 -35 112h-6q-137 -203 -355 -203q-106 0 -168 64q-55 55 -61 141q-135 -205 -352 -205q-102 0 -166 66q-70 72 -70 201z" />
<glyph unicode="&#x44a;" horiz-adv-x="1126" d="M78 811l35 186h610q-180 -281 -236 -419h2q111 111 279 110q123 0 197 -70q76 -74 75 -196q0 -174 -137 -301q-145 -137 -371 -137q-334 0 -333 278q0 240 217 549h-338zM434 279q0 -123 127 -123q98 0 170 63q76 66 76 160q0 137 -137 137q-154 0 -217 -151 q-18 -43 -19 -86z" />
<glyph unicode="&#x44b;" horiz-adv-x="1435" d="M80 215q0 78 26 193l130 589h235l-102 -417h2q109 109 270 108q121 0 195 -70q76 -74 75 -198q0 -176 -135 -301q-147 -135 -383 -135q-313 0 -313 231zM315 256q0 -100 125 -100q92 0 162 61q76 66 76 162q0 137 -135 137q-70 0 -135 -55q-59 -51 -78 -117 q-14 -49 -15 -88zM956 0l191 997h248l-191 -997h-248z" />
<glyph unicode="&#x44c;" horiz-adv-x="1009" d="M80 223q0 61 29 187l131 587h233l-104 -417h2q109 109 274 108q121 0 199 -70q80 -74 80 -198q0 -180 -138 -303q-147 -133 -387 -133q-319 0 -319 239zM317 262q0 -106 125 -106q96 0 170 61q78 63 78 160q0 139 -135 139q-76 0 -141 -55q-57 -47 -80 -107 q-16 -45 -17 -92z" />
<glyph unicode="&#x44d;" horiz-adv-x="935" d="M-25 47l60 170q106 -53 237 -53q276 0 334 258h-418l29 158h412v26q0 98 -64 162q-70 68 -188 68q-113 0 -215 -43l-41 168q143 59 287 59q219 0 340 -127q117 -125 116 -340q0 -254 -155 -412q-162 -164 -439 -164q-188 6 -295 70z" />
<glyph unicode="&#x44e;" horiz-adv-x="1503" d="M41 0l188 997h240l-74 -389h146q55 182 190 295q139 117 320 117q180 0 288 -125q102 -117 103 -297q0 -254 -154 -434q-158 -186 -395 -187q-178 0 -283 113q-100 109 -100 279q0 16 4 65h-152l-81 -434h-240zM741 395q0 -102 47 -166q47 -68 134 -67q114 0 198 147 q78 137 78 295q0 92 -37 156q-47 76 -137 76q-123 0 -207 -152q-76 -135 -76 -289z" />
<glyph unicode="&#x44f;" horiz-adv-x="1036" d="M-45 0q23 35 139 262q98 176 248 207v4q-80 18 -137 72q-68 63 -68 149q0 319 531 320q190 0 329 -23l-188 -991h-236l78 395h-80q-158 0 -249 -182q-84 -168 -113 -213h-254zM383 692q0 -68 68 -106q59 -33 139 -33h90l55 287q-55 10 -119 10q-233 0 -233 -158z" />
<glyph unicode="&#x451;" horiz-adv-x="980" d="M61 391q0 240 154 428q166 201 412 201q147 0 235 -78q86 -76 86 -203q0 -344 -653 -329q-10 -80 27 -142q59 -102 204 -102q147 0 275 65l22 -174q-154 -80 -352 -80q-201 0 -309 115q-100 109 -101 299zM319 588q403 -4 404 151q0 103 -127 103q-104 0 -184 -82 q-68 -72 -93 -172zM338 1270q0 57 39 96q39 37 94 37q117 0 117 -119q0 -59 -39 -98q-37 -37 -94 -37q-49 0 -82 33q-35 35 -35 88zM737 1270q0 57 39 96q39 37 94 37q117 0 117 -119q0 -59 -39 -98q-37 -37 -94 -37q-49 0 -82 33q-35 35 -35 88z" />
<glyph unicode="&#x452;" horiz-adv-x="1124" d="M41 0l217 1141h-119l33 162h117l28 151h236l-27 -151h484l-33 -162h-481l-54 -273h4q125 139 293 140q156 0 238 -121q72 -111 72 -295q0 -477 -277 -727q-133 -147 -340 -172l-39 196q106 18 199 109q209 178 209 555q0 258 -162 258q-90 0 -162 -84q-74 -82 -96 -205 l-100 -522h-240z" />
<glyph unicode="&#x453;" horiz-adv-x="813" d="M18 246q0 131 105 219q63 53 229 127q205 90 205 160q0 84 -119 88q-98 0 -217 -52l-31 160q135 70 295 70q147 -2 228 -72q78 -70 78 -188q0 -188 -324 -330q-203 -92 -203 -176q0 -92 121 -94q119 0 258 71l31 -168q-152 -86 -328 -81q-328 4 -328 266zM424 1118 l197 303h251l-270 -303h-178z" />
<glyph unicode="&#x454;" horiz-adv-x="886" d="M66 418q0 256 161 428q170 174 441 174q156 0 245 -55l-59 -170q-78 43 -186 43q-260 0 -334 -256h426l-29 -158h-422v-35q10 -102 76 -162q70 -63 182 -63q104 0 201 41l18 -170q-111 -57 -288 -58q-195 0 -314 119q-119 121 -118 322z" />
<glyph unicode="&#x455;" horiz-adv-x="813" d="M4 51l62 170q117 -66 239 -65q70 0 113 37q41 33 41 86q0 86 -131 153q-197 104 -197 260q0 143 113 236q115 92 291 92q152 0 233 -51l-59 -172q-86 45 -187 45q-68 0 -108 -33q-43 -31 -43 -82q0 -74 129 -139q207 -106 207 -269q0 -162 -123 -253q-115 -90 -301 -89 q-178 0 -279 74z" />
<glyph unicode="&#x456;" horiz-adv-x="512" d="M41 0l190 997h238l-188 -997h-240zM262 1286q0 66 45 109q43 43 107 43q59 0 98 -37q37 -37 37 -98q-2 -70 -47 -111t-111 -41q-57 0 -92 37q-37 39 -37 98z" />
<glyph unicode="&#x457;" horiz-adv-x="509" d="M41 0l188 997h240l-190 -997h-238zM72 1270q0 57 39 96q39 37 94 37q117 0 117 -119q0 -59 -39 -98q-37 -37 -95 -37q-49 0 -82 33q-35 35 -34 88zM473 1270q0 57 39 96q39 37 94 37q117 0 117 -119q0 -59 -39 -98q-37 -37 -94 -37q-49 0 -82 33q-35 35 -35 88z" />
<glyph unicode="&#x458;" horiz-adv-x="520" d="M-211 -414l29 183q29 -6 71 -7q129 0 172 234l191 1001h237l-184 -977q-49 -252 -135 -346q-90 -102 -252 -102q-72 0 -129 14zM272 1284q0 66 45 111q45 43 107 43q59 0 98 -37q37 -37 37 -96q0 -70 -45 -113q-45 -41 -113 -41q-57 0 -92 37q-37 37 -37 96z" />
<glyph unicode="&#x459;" horiz-adv-x="1560" d="M-66 178q66 4 119 49q111 86 162 365l76 405h715l-84 -413h4q111 104 276 104q121 0 197 -70q78 -72 78 -196q0 -180 -138 -303q-147 -135 -391 -135q-315 0 -315 237q0 66 24 185l82 405h-262l-43 -221q-78 -395 -235 -512q-104 -90 -248 -90zM868 266q0 -111 127 -110 q96 0 170 59q78 66 78 162q0 139 -135 139q-152 0 -223 -164q-16 -43 -17 -86z" />
<glyph unicode="&#x45a;" horiz-adv-x="1581" d="M41 0l188 997h238l-70 -366h328l72 366h231l-84 -413h2q104 104 271 104q123 0 198 -70q82 -74 82 -198q0 -180 -137 -303q-147 -133 -393 -133q-313 0 -314 225q0 49 17 135l20 105h-328l-83 -449h-238zM889 260q0 -104 127 -104q100 0 172 59q76 63 76 162 q0 139 -140 139q-76 0 -139 -53q-59 -51 -80 -117q-16 -49 -16 -86z" />
<glyph unicode="&#x45b;" horiz-adv-x="1128" d="M43 0l215 1143h-137l31 157h137l28 154h240l-31 -154h461l-33 -157h-456l-58 -295h4q141 172 334 172q109 0 176 -66q74 -72 74 -202q0 -76 -18 -177l-109 -575h-237l106 559q12 74 12 127q0 139 -125 139q-90 0 -172 -96q-86 -100 -114 -254l-90 -475h-238z" />
<glyph unicode="&#x45c;" horiz-adv-x="991" d="M41 0l190 997h232l-80 -424h33l379 424h282l-459 -450q131 -43 191 -289q63 -233 76 -258h-236l-69 240q-33 104 -74 145q-45 45 -123 45h-27l-82 -430h-233zM502 1118l196 303h252l-268 -303h-180z" />
<glyph unicode="&#x45e;" horiz-adv-x="964" d="M-66 -254q117 43 177 88q109 76 176 199q10 18 4 47l-199 917h250l119 -731h4l41 103l264 628h252q-299 -627 -358 -745q-184 -360 -367 -539q-145 -139 -307 -172zM356 1409h160q-8 -61 16 -100q23 -41 70 -41q92 0 131 141h160q-57 -260 -305 -260q-254 0 -232 260z " />
<glyph unicode="&#x45f;" horiz-adv-x="1116" d="M92 260q0 82 21 178l106 559h238l-103 -544q-16 -78 -16 -138q0 -141 127 -141q86 0 166 92q84 96 112 248l91 483h239l-131 -688q-20 -106 -49 -309h-213l22 174h-4q-147 -197 -346 -197q-260 0 -260 283zM283 -420l67 328l215 14l-90 -317z" />
<glyph unicode="&#x490;" horiz-adv-x="872" d="M51 0l260 1380h514l90 267h185l-117 -476h-473l-219 -1171h-240z" />
<glyph unicode="&#x491;" horiz-adv-x="796" d="M41 0l188 997h426l82 230h178l-102 -418h-381l-153 -809h-238z" />
<glyph unicode="&#x4d9;" horiz-adv-x="968" d="M23 258q0 344 653 330q8 76 -25 139q-57 104 -205 104q-143 0 -270 -67l-31 172q150 84 355 84q201 0 309 -117q100 -109 100 -299q0 -242 -151 -426q-164 -199 -410 -198q-147 0 -237 77q-88 76 -88 201zM248 260q0 -102 131 -102q102 0 180 82q68 70 92 170 q-403 4 -403 -150z" />
<glyph unicode="&#x2000;" horiz-adv-x="856" />
<glyph unicode="&#x2001;" horiz-adv-x="1712" />
<glyph unicode="&#x2002;" horiz-adv-x="856" />
<glyph unicode="&#x2003;" horiz-adv-x="1712" />
<glyph unicode="&#x2004;" horiz-adv-x="570" />
<glyph unicode="&#x2005;" horiz-adv-x="428" />
<glyph unicode="&#x2006;" horiz-adv-x="285" />
<glyph unicode="&#x2007;" horiz-adv-x="285" />
<glyph unicode="&#x2008;" horiz-adv-x="214" />
<glyph unicode="&#x2009;" horiz-adv-x="342" />
<glyph unicode="&#x200a;" horiz-adv-x="95" />
<glyph unicode="&#x2010;" horiz-adv-x="645" d="M61 459l33 174h512l-33 -174h-512z" />
<glyph unicode="&#x2011;" horiz-adv-x="645" d="M61 459l33 174h512l-33 -174h-512z" />
<glyph unicode="&#x2012;" horiz-adv-x="645" d="M61 459l33 174h512l-33 -174h-512z" />
<glyph unicode="&#x2013;" horiz-adv-x="1024" d="M51 440l31 160h901l-31 -160h-901z" />
<glyph unicode="&#x2014;" horiz-adv-x="2048" d="M51 440l31 160h1925l-31 -160h-1925z" />
<glyph unicode="&#x2018;" horiz-adv-x="464" d="M137 879q143 319 299 524l160 14q-141 -281 -213 -520z" />
<glyph unicode="&#x2019;" horiz-adv-x="464" d="M125 879q133 262 213 518l246 20q-154 -332 -299 -524z" />
<glyph unicode="&#x201a;" horiz-adv-x="464" d="M-111 -242q147 289 220 535l256 20q-143 -319 -308 -538z" />
<glyph unicode="&#x201c;" horiz-adv-x="821" d="M137 879q141 315 297 524l160 14q-133 -264 -213 -520zM496 879q147 328 297 524l159 14q-141 -281 -213 -520z" />
<glyph unicode="&#x201d;" horiz-adv-x="821" d="M123 879q133 262 213 518l244 20q-147 -328 -297 -524zM481 879q133 262 213 518l244 20q-141 -315 -297 -524z" />
<glyph unicode="&#x201e;" horiz-adv-x="821" d="M-121 -242q147 289 219 535l256 20q-143 -319 -307 -538zM260 -242q147 289 219 535l256 20q-143 -319 -307 -538z" />
<glyph unicode="&#x2026;" horiz-adv-x="2048" d="M115 127q0 74 47 125q49 51 121 51q63 0 104 -43t41 -108q0 -74 -49 -123q-47 -49 -123 -49q-61 0 -102 43q-39 41 -39 104zM799 127q0 74 47 125q49 51 121 51q63 0 104 -43t41 -108q0 -74 -49 -123q-47 -49 -123 -49q-61 0 -102 43q-39 41 -39 104zM1483 127 q0 74 47 125q49 51 121 51q63 0 104 -43t41 -108q0 -74 -49 -123q-47 -49 -123 -49q-61 0 -102 43q-39 41 -39 104z" />
<glyph unicode="&#x202f;" horiz-adv-x="342" />
<glyph unicode="&#x2039;" horiz-adv-x="528" d="M55 516l289 385h191l-302 -387l201 -381h-174z" />
<glyph unicode="&#x203a;" horiz-adv-x="526" d="M12 133l301 389l-200 379h174l205 -385l-289 -383h-191z" />
<glyph unicode="&#x205f;" horiz-adv-x="428" />
<glyph unicode="&#x20ac;" d="M16 496l27 127h125q8 61 20 106h-127l27 127h137q78 215 258 354q186 143 412 144q164 0 283 -62l-74 -182q-94 45 -221 45q-135 0 -250 -90q-106 -84 -158 -209h506l-29 -127h-522q-14 -57 -20 -106h522l-27 -127h-497q8 -141 81 -228q80 -92 220 -92q131 0 237 51 l27 -180q-117 -70 -307 -70q-236 0 -371 146q-131 141 -135 373h-144z" />
<glyph unicode="&#x2122;" horiz-adv-x="1402" d="M213 1264v116h477v-116h-168v-443h-143v443h-166zM727 821l37 559h221l64 -198q20 -86 34 -162h2l39 160l66 200h207l35 -559h-140l-14 283v88q0 66 -2 102h-8l-47 -194l-78 -269h-139l-74 273l-37 190h-8l-6 -190l-15 -283h-137z" />
<glyph unicode="&#x25fc;" horiz-adv-x="993" d="M0 0v993h993v-993h-993z" />
</font>
</defs>
</svg>
